<svg width="919" height="878" viewBox="0 0 919 878" fill="none" xmlns="http://www.w3.org/2000/svg">
<path d="M350.6 751.86C446.872 772.841 619.484 699.844 703.638 609.324C787.792 518.804 816.732 422.569 783.651 314.037C750.571 205.505 686.843 167.234 585.925 200.747C521.634 222.097 477.727 268.817 336.9 240.086C196.072 211.355 140.668 280.012 114.966 356.988C89.2634 433.963 107.385 531.189 156.286 597.9C191.738 646.264 231.453 725.894 350.6 751.86Z" fill="#7033FF"/>
<path d="M600.647 280.448C521.296 298.994 423.186 362.073 382.439 491.592C341.693 621.111 369.572 692.015 432.847 761.308C496.122 830.602 581.991 811.595 620.767 775.642C661.851 737.549 677.377 686.357 792.755 657.764C908.133 629.172 925.108 558.21 916.946 491.592C908.785 424.974 860.699 358.807 800.472 326.367C756.81 302.849 698.851 257.496 600.647 280.448Z" fill="#FF9066" fill-opacity="0.55"/>
<path d="M418.464 577.1V610H412.213L395.81 590.025V610H388.29V577.1H394.588L410.944 597.075V577.1H418.464ZM442.181 610.564C438.766 610.564 435.68 609.828 432.922 608.355C430.196 606.882 428.05 604.861 426.483 602.292C424.948 599.691 424.18 596.777 424.18 593.55C424.18 590.323 424.948 587.424 426.483 584.855C428.05 582.254 430.196 580.218 432.922 578.745C435.68 577.272 438.766 576.536 442.181 576.536C445.597 576.536 448.667 577.272 451.393 578.745C454.119 580.218 456.266 582.254 457.832 584.855C459.399 587.424 460.182 590.323 460.182 593.55C460.182 596.777 459.399 599.691 457.832 602.292C456.266 604.861 454.119 606.882 451.393 608.355C448.667 609.828 445.597 610.564 442.181 610.564ZM442.181 604.078C444.124 604.078 445.879 603.639 447.445 602.762C449.012 601.853 450.234 600.6 451.111 599.002C452.02 597.404 452.474 595.587 452.474 593.55C452.474 591.513 452.02 589.696 451.111 588.098C450.234 586.5 449.012 585.262 447.445 584.385C445.879 583.476 444.124 583.022 442.181 583.022C440.239 583.022 438.484 583.476 436.917 584.385C435.351 585.262 434.113 586.5 433.204 588.098C432.327 589.696 431.888 591.513 431.888 593.55C431.888 595.587 432.327 597.404 433.204 599.002C434.113 600.6 435.351 601.853 436.917 602.762C438.484 603.639 440.239 604.078 442.181 604.078ZM464.447 577.1H473.189L471.732 598.579H465.904L464.447 577.1ZM468.818 610.376C467.534 610.376 466.453 609.969 465.575 609.154C464.729 608.308 464.306 607.29 464.306 606.099C464.306 604.908 464.729 603.921 465.575 603.138C466.421 602.323 467.502 601.916 468.818 601.916C470.134 601.916 471.215 602.323 472.061 603.138C472.907 603.921 473.33 604.908 473.33 606.099C473.33 607.29 472.892 608.308 472.014 609.154C471.168 609.969 470.103 610.376 468.818 610.376ZM522.975 577.1V610H516.724L500.321 590.025V610H492.801V577.1H499.099L515.455 597.075V577.1H522.975ZM546.692 610.564C543.277 610.564 540.19 609.828 537.433 608.355C534.707 606.882 532.561 604.861 530.994 602.292C529.459 599.691 528.691 596.777 528.691 593.55C528.691 590.323 529.459 587.424 530.994 584.855C532.561 582.254 534.707 580.218 537.433 578.745C540.19 577.272 543.277 576.536 546.692 576.536C550.107 576.536 553.178 577.272 555.904 578.745C558.63 580.218 560.776 582.254 562.343 584.855C563.91 587.424 564.693 590.323 564.693 593.55C564.693 596.777 563.91 599.691 562.343 602.292C560.776 604.861 558.63 606.882 555.904 608.355C553.178 609.828 550.107 610.564 546.692 610.564ZM546.692 604.078C548.635 604.078 550.389 603.639 551.956 602.762C553.523 601.853 554.745 600.6 555.622 599.002C556.531 597.404 556.985 595.587 556.985 593.55C556.985 591.513 556.531 589.696 555.622 588.098C554.745 586.5 553.523 585.262 551.956 584.385C550.389 583.476 548.635 583.022 546.692 583.022C544.749 583.022 542.995 583.476 541.428 584.385C539.861 585.262 538.624 586.5 537.715 588.098C536.838 589.696 536.399 591.513 536.399 593.55C536.399 595.587 536.838 597.404 537.715 599.002C538.624 600.6 539.861 601.853 541.428 602.762C542.995 603.639 544.749 604.078 546.692 604.078ZM568.958 577.1H577.7L576.243 598.579H570.415L568.958 577.1ZM573.329 610.376C572.044 610.376 570.963 609.969 570.086 609.154C569.24 608.308 568.817 607.29 568.817 606.099C568.817 604.908 569.24 603.921 570.086 603.138C570.932 602.323 572.013 601.916 573.329 601.916C574.645 601.916 575.726 602.323 576.572 603.138C577.418 603.921 577.841 604.908 577.841 606.099C577.841 607.29 577.402 608.308 576.525 609.154C575.679 609.969 574.614 610.376 573.329 610.376ZM627.486 577.1V610H621.235L604.832 590.025V610H597.312V577.1H603.61L619.966 597.075V577.1H627.486ZM651.203 610.564C647.787 610.564 644.701 609.828 641.944 608.355C639.218 606.882 637.071 604.861 635.505 602.292C633.969 599.691 633.202 596.777 633.202 593.55C633.202 590.323 633.969 587.424 635.505 584.855C637.071 582.254 639.218 580.218 641.944 578.745C644.701 577.272 647.787 576.536 651.203 576.536C654.618 576.536 657.689 577.272 660.415 578.745C663.141 580.218 665.287 582.254 666.854 584.855C668.42 587.424 669.204 590.323 669.204 593.55C669.204 596.777 668.42 599.691 666.854 602.292C665.287 604.861 663.141 606.882 660.415 608.355C657.689 609.828 654.618 610.564 651.203 610.564ZM651.203 604.078C653.145 604.078 654.9 603.639 656.467 602.762C658.033 601.853 659.255 600.6 660.133 599.002C661.041 597.404 661.496 595.587 661.496 593.55C661.496 591.513 661.041 589.696 660.133 588.098C659.255 586.5 658.033 585.262 656.467 584.385C654.9 583.476 653.145 583.022 651.203 583.022C649.26 583.022 647.505 583.476 645.939 584.385C644.372 585.262 643.134 586.5 642.226 588.098C641.348 589.696 640.91 591.513 640.91 593.55C640.91 595.587 641.348 597.404 642.226 599.002C643.134 600.6 644.372 601.853 645.939 602.762C647.505 603.639 649.26 604.078 651.203 604.078ZM673.469 577.1H682.211L680.754 598.579H674.926L673.469 577.1ZM677.84 610.376C676.555 610.376 675.474 609.969 674.597 609.154C673.751 608.308 673.328 607.29 673.328 606.099C673.328 604.908 673.751 603.921 674.597 603.138C675.443 602.323 676.524 601.916 677.84 601.916C679.156 601.916 680.237 602.323 681.083 603.138C681.929 603.921 682.352 604.908 682.352 606.099C682.352 607.29 681.913 608.308 681.036 609.154C680.19 609.969 679.125 610.376 677.84 610.376Z" fill="white"/>
<path opacity="0.3" d="M442.956 560.89C550.943 560.89 638.483 555.532 638.483 548.922C638.483 542.312 550.943 536.954 442.956 536.954C334.969 536.954 247.428 542.312 247.428 548.922C247.428 555.532 334.969 560.89 442.956 560.89Z" fill="#27201F"/>
<path d="M417.025 244.236L387.467 197C387.467 197 364.378 201.987 365.513 248.687L417.025 244.236Z" fill="#3C2A34"/>
<path d="M405.02 246.842L386.369 210.452C386.369 210.452 369.128 221.148 370.038 248.288L405.02 246.842Z" fill="#E76650"/>
<path d="M395.769 241.12C395.769 241.12 394.597 226.808 381.445 224.153L386.507 233.627C386.507 233.627 383.652 231.869 378.141 232.642C378.141 232.642 384.524 237.691 384.973 243.152C384.973 243.152 386.955 237.642 382.106 233.652C382.106 233.652 387.392 235.173 388.501 237.155C388.501 237.155 388.501 231.209 384.973 227.681C384.973 227.681 392.029 230.984 395.769 241.12Z" fill="#FBE4D3"/>
<path d="M486.09 244.236L515.649 197C515.649 197 538.737 201.987 537.603 248.687L486.09 244.236Z" fill="#3C2A34"/>
<path d="M498.096 246.842L516.746 210.452C516.746 210.452 533.987 221.148 533.077 248.288L498.096 246.842Z" fill="#E76650"/>
<path d="M507.346 241.12C507.346 241.12 508.518 226.808 521.67 224.153L516.609 233.627C516.609 233.627 519.464 231.869 524.974 232.642C524.974 232.642 518.591 237.691 518.142 243.152C518.142 243.152 516.16 237.642 521.01 233.652C521.01 233.652 515.724 235.173 514.614 237.155C514.614 237.155 514.614 231.209 518.142 227.681C518.142 227.681 511.086 230.984 507.346 241.12Z" fill="#FBE4D3"/>
<path d="M365.774 248.687C365.774 248.687 307.405 333.173 318.526 356.112C329.646 379.051 451.146 492.498 451.146 492.498C451.146 492.498 585.537 361.074 585.537 333.011C585.537 304.949 537.603 248.687 537.603 248.687C537.603 248.687 443.679 229.376 365.774 248.687Z" fill="#FBE4D3"/>
<path d="M328.848 550.343C328.848 550.343 250.969 483.447 327.439 314.523C354.505 254.733 562.15 270.155 575.975 302.88C644.916 465.994 585.55 550.343 585.55 550.343H328.848Z" fill="#FBE4D3"/>
<path d="M327.414 314.548C327.414 314.548 306.894 578.605 609.286 452.48C609.286 452.48 612.777 508.667 585.537 550.331H318.526C318.526 550.343 258.012 454.213 327.414 314.548Z" fill="#EFCAC4"/>
<path d="M450.685 286V339.806L439.34 361.548L454.051 342.972L467.291 361.548L456.071 337.836L454.051 284.08L450.685 286Z" fill="#3C2A34"/>
<path d="M538.101 427.796C538.101 427.796 545.407 476.341 525.66 492.498C525.66 492.498 527.343 479.607 525.66 465.869C525.66 465.869 513.368 503.157 476.08 509.44C476.08 509.44 501.985 517.294 522.792 478.423C522.792 478.423 524.363 496.475 522.792 502.371C522.792 502.371 552.638 483.921 538.101 427.796Z" fill="#FFFAEF"/>
<path d="M524.862 346.837C524.862 346.837 529.973 395.656 509.515 410.916C509.515 410.916 511.784 398.112 510.712 384.324C510.712 384.324 496.762 421.026 459.225 425.614C459.225 425.614 484.756 434.627 507.284 396.741C507.284 396.741 508.044 414.855 506.212 420.665C506.199 420.652 536.842 403.573 524.862 346.837Z" fill="#FFFAEF"/>
<path d="M358.644 427.796C358.644 427.796 351.338 476.341 371.085 492.498C371.085 492.498 369.402 479.607 371.085 465.869C371.085 465.869 383.377 503.157 420.665 509.44C420.665 509.44 394.76 517.294 373.953 478.423C373.953 478.423 372.382 496.475 373.953 502.371C373.953 502.371 344.12 483.921 358.644 427.796Z" fill="#FFFAEF"/>
<path d="M337.463 349.991C337.463 349.991 306.545 397.227 314.998 422.198C314.998 422.198 320.134 408.148 328.574 394.622C328.574 394.622 319.959 438.368 348.296 460.396C348.296 460.396 322.378 457.741 324.597 408.834C324.597 408.834 314.063 426.886 312.392 433.643C312.392 433.618 296.572 402.089 337.463 349.991Z" fill="#FFFAEF"/>
<path d="M382.979 369.988C382.979 369.988 401.89 411.203 441.086 427.347L418.234 398.674C418.234 398.674 451.358 421.4 474.746 410.355C474.746 410.355 455.136 425.652 432.234 409.083L445.873 432.446C445.86 432.446 399.534 421.425 382.979 369.988Z" fill="#FFFAEF"/>
<path d="M324.398 550.218C324.398 550.218 341.115 460.334 289.703 442.556C250.807 429.105 231.932 382.903 269.17 354.629C269.17 354.629 187.75 363.679 226.684 463.326L210.402 442.556C210.402 442.556 176.244 554.445 324.398 550.218Z" fill="#EFCAC4"/>
<path d="M240.297 405.181C240.297 405.181 232.992 453.726 252.739 469.883C252.739 469.883 251.056 456.993 252.739 443.254C252.739 443.254 265.031 480.542 302.319 486.825C302.319 486.825 276.413 494.679 255.606 455.808C255.606 455.808 254.036 473.86 255.606 479.757C255.606 479.769 225.774 461.319 240.297 405.181Z" fill="#FFFAEF"/>
<path d="M487.998 332.089C487.998 332.089 466.43 278.532 448.69 283.032C431.848 287.309 415.13 333.784 415.13 333.784C415.13 333.784 431.998 275.415 452.368 276.637C472.739 277.859 487.998 332.089 487.998 332.089Z" fill="#3C2A34"/>
<path d="M440.462 251.592L439.615 275.179H373.329L436.66 271.775L440.462 251.592Z" fill="#3C2A34"/>
<path d="M462.653 251.592L463.501 275.179H529.786L466.455 271.775L462.653 251.592Z" fill="#3C2A34"/>
<path d="M440.425 282.459C440.425 282.459 447.169 300.212 452.48 299.476C459.212 298.541 463.837 282.821 463.837 282.821C463.837 282.821 453.316 267.649 440.425 282.459Z" fill="#E76650"/>
<path d="M450.56 295.587C450.56 295.587 450.074 285.202 445.86 285.214C445.86 285.214 449.663 289.628 450.56 295.587Z" fill="#FBE4D3"/>
<path d="M453.316 295.587C453.316 295.587 453.802 285.202 458.015 285.214C458.015 285.214 454.213 289.628 453.316 295.587Z" fill="#FBE4D3"/>
<path d="M369.926 278.544H433.257C433.257 278.544 425.615 331.254 401.591 324.285C377.568 317.316 369.926 278.544 369.926 278.544Z" fill="#707173"/>
<path d="M369.926 278.682H433.257C433.257 278.682 425.615 317.777 401.591 311.881C377.568 305.996 369.926 278.682 369.926 278.682Z" fill="#FAB217"/>
<path d="M385.609 278.682H424.306C424.306 278.682 420.067 298.616 404.957 298.965C389.112 299.339 385.609 278.682 385.609 278.682Z" fill="#3C2A34"/>
<path d="M425.066 285.613C425.066 287.421 423.607 288.879 421.8 288.879C420.005 288.879 418.533 287.421 418.533 285.613C418.533 283.806 419.992 282.347 421.8 282.347C423.607 282.347 425.066 283.806 425.066 285.613Z" fill="#FBE4D3"/>
<path d="M533.19 278.544H469.859C469.859 278.544 478.436 330.842 502.459 323.873C526.482 316.892 533.19 278.544 533.19 278.544Z" fill="#707173"/>
<path d="M533.19 278.682H469.859C469.859 278.682 477.501 317.777 501.524 311.881C525.547 305.996 533.19 278.682 533.19 278.682Z" fill="#FAB217"/>
<path d="M517.506 278.682H478.81C478.81 278.682 483.049 298.616 498.158 298.965C514.003 299.339 517.506 278.682 517.506 278.682Z" fill="#3C2A34"/>
<path d="M509.989 285.613C509.989 287.421 511.448 288.879 513.255 288.879C515.063 288.879 516.522 287.421 516.522 285.613C516.522 283.806 515.063 282.347 513.255 282.347C511.448 282.347 509.989 283.806 509.989 285.613Z" fill="#FBE4D3"/>
<path d="M663.267 379.4C663.267 379.4 655.637 444.152 594.663 447.106L592.182 346.837C592.182 346.837 615.756 399.06 638.483 351.699C638.471 351.699 662.955 362.62 663.267 379.4Z" fill="#F8E2D2"/>
<path d="M634.095 327.24L638.471 411.577H628.884L625.929 327.24H634.095Z" fill="#3C2A34"/>
<path d="M638.321 348.271C638.321 348.271 611.468 349.368 615.756 370.212C620.032 391.056 634.631 411.028 650.875 401.055C667.107 391.069 671.532 351.225 638.321 348.271Z" fill="#F8E2D2"/>
<path d="M601.981 333.822L572.086 282.035L601.981 230.261H661.771L691.666 282.035L661.771 333.822H601.981Z" fill="#E76650"/>
<path d="M597.119 249.023C597.119 244.735 597.555 240.546 598.353 236.482L572.061 282.035L601.956 333.809H661.746L674.437 311.806C670.173 312.691 665.773 313.164 661.247 313.164C625.829 313.164 597.119 284.454 597.119 249.023Z" fill="#EE3A3D"/>
<path d="M659.078 328.374H604.674L577.446 282.035L604.674 235.697H659.078L686.305 282.035L659.078 328.374ZM606.568 325.058H657.171L682.453 282.048L657.171 239.038H606.568L581.286 282.048L606.568 325.058Z" fill="#FFF9EF"/>
<path d="M619.973 272.603V298.706H614.876V262.666H621.981L627.798 284.238V262.666H632.844V298.706H627.026L619.973 272.603ZM642.099 290.417C642.099 291.721 642.356 292.648 642.871 293.197C643.42 293.712 644.141 293.969 645.033 293.969C645.926 293.969 646.63 293.712 647.144 293.197C647.694 292.648 647.968 291.721 647.968 290.417V270.955C647.968 269.651 647.694 268.741 647.144 268.227C646.63 267.677 645.926 267.403 645.033 267.403C644.141 267.403 643.42 267.677 642.871 268.227C642.356 268.741 642.099 269.651 642.099 270.955V290.417ZM636.435 271.316C636.435 268.398 637.173 266.167 638.649 264.623C640.125 263.044 642.253 262.254 645.033 262.254C647.814 262.254 649.942 263.044 651.418 264.623C652.894 266.167 653.632 268.398 653.632 271.316V290.056C653.632 292.974 652.894 295.222 651.418 296.801C649.942 298.345 647.814 299.118 645.033 299.118C642.253 299.118 640.125 298.345 638.649 296.801C637.173 295.222 636.435 292.974 636.435 290.056V271.316Z" fill="white"/>
<path d="M320.209 278.682C320.209 278.682 358.968 316.618 446.022 309.611C446.035 309.624 363.992 323.961 320.209 278.682Z" fill="#FFFAEF"/>
<path d="M306.171 298.541C306.171 298.541 359.915 333.797 445.362 312.13C445.362 312.13 355.402 337.811 306.171 298.541Z" fill="#FFFAEF"/>
<path d="M320.209 326.953C320.209 326.953 370.811 353.12 446.06 314.523C446.06 314.523 374.252 359.291 320.209 326.953Z" fill="#FFFAEF"/>
<path d="M582.907 278.682C582.907 278.682 544.148 316.618 457.08 309.611C457.08 309.624 539.124 323.961 582.907 278.682Z" fill="#FFFAEF"/>
<path d="M596.944 298.541C596.944 298.541 543.2 333.797 457.754 312.13C457.754 312.13 547.713 337.811 596.944 298.541Z" fill="#FFFAEF"/>
<path d="M582.907 326.953C582.907 326.953 532.304 353.12 457.056 314.523C457.056 314.523 528.864 359.291 582.907 326.953Z" fill="#FFFAEF"/>
<path d="M572.397 364.989C572.397 364.989 601.071 404.832 590.885 428.232C590.885 428.232 586.497 416.002 578.718 404.545C578.718 404.545 584.827 443.329 554.508 465.956C554.508 465.956 581.136 461.107 581.897 417.037C581.897 417.037 591.534 432.383 592.83 438.342C592.843 438.33 610.957 408.285 572.397 364.989Z" fill="#FFFAEF"/>
</svg>
