<svg width="919" height="878" viewBox="0 0 919 878" fill="none" xmlns="http://www.w3.org/2000/svg">
<path d="M350.6 751.86C446.872 772.841 619.484 699.844 703.638 609.324C787.792 518.804 816.732 422.569 783.651 314.037C750.571 205.505 686.843 167.234 585.925 200.747C521.634 222.097 477.727 268.817 336.9 240.086C196.072 211.355 140.668 280.012 114.966 356.988C89.2633 433.963 107.385 531.189 156.286 597.9C191.738 646.264 231.453 725.894 350.6 751.86Z" fill="#7033FF"/>
<path d="M600.647 280.448C521.296 298.994 423.186 362.073 382.439 491.592C341.693 621.111 369.572 692.015 432.847 761.308C496.122 830.602 581.991 811.595 620.767 775.642C661.851 737.549 677.377 686.357 792.755 657.764C908.133 629.172 925.108 558.21 916.946 491.592C908.785 424.974 860.699 358.807 800.472 326.367C756.81 302.849 698.851 257.496 600.647 280.448Z" fill="#FF9066" fill-opacity="0.55"/>
<path d="M624.651 500.774C624.651 505.247 621.014 508.884 616.541 508.884C612.069 508.884 608.432 505.247 608.432 500.774C608.432 496.302 612.069 492.665 616.541 492.665C621.014 492.665 624.651 496.285 624.651 500.774Z" stroke="#93909D" stroke-width="2" stroke-miterlimit="10" stroke-linecap="round" stroke-linejoin="round"/>
<path d="M587.199 228.549C581.874 228.549 577.549 224.224 577.549 218.899C577.549 213.574 581.874 209.249 587.199 209.249C592.523 209.249 596.848 213.574 596.848 218.899C596.848 224.224 592.523 228.549 587.199 228.549ZM587.199 212.329C583.578 212.329 580.629 215.278 580.629 218.899C580.629 222.52 583.578 225.469 587.199 225.469C590.819 225.469 593.768 222.52 593.768 218.899C593.768 215.278 590.819 212.329 587.199 212.329Z" fill="white"/>
<path d="M233.876 523.171C228.551 523.171 224.226 518.845 224.226 513.521C224.226 508.196 228.551 503.871 233.876 503.871C239.2 503.871 243.525 508.196 243.525 513.521C243.542 518.845 239.2 523.171 233.876 523.171ZM233.876 506.951C230.255 506.951 227.306 509.9 227.306 513.521C227.306 517.142 230.255 520.091 233.876 520.091C237.496 520.091 240.445 517.142 240.445 513.521C240.445 509.9 237.496 506.951 233.876 506.951Z" fill="#93909D"/>
<path d="M360.535 333.648C360.289 333.648 360.109 333.599 359.913 333.517C359.749 333.435 359.585 333.337 359.454 333.189C359.356 333.091 359.257 332.976 359.192 332.845L350.033 316.986C349.968 316.871 349.902 316.724 349.87 316.593C349.837 316.462 349.82 316.331 349.82 316.2C349.82 316.151 349.82 316.101 349.82 316.036C349.837 315.807 349.919 315.61 350.017 315.413C350.132 315.233 350.279 315.069 350.459 314.922C350.607 314.807 350.787 314.725 350.967 314.676C351.115 314.643 351.246 314.627 351.393 314.627H369.71C369.857 314.627 370.005 314.643 370.136 314.676C370.316 314.725 370.48 314.807 370.627 314.905C370.808 315.037 370.955 315.2 371.07 315.397C371.168 315.577 371.25 315.79 371.266 316.02C371.266 316.069 371.266 316.118 371.266 316.183C371.266 316.314 371.25 316.445 371.217 316.593C371.184 316.724 371.119 316.871 371.053 316.986L361.895 332.845C361.829 332.976 361.748 333.091 361.633 333.189C361.502 333.32 361.338 333.435 361.174 333.501C360.961 333.615 360.748 333.648 360.535 333.648ZM354.015 317.74L360.519 329.012L367.023 317.74H354.015Z" fill="#DBD9D9"/>
<path d="M764.352 362.22C764.335 362.22 764.335 362.22 764.319 362.22H746.002C745.855 362.22 745.708 362.204 745.576 362.171C745.396 362.122 745.232 362.04 745.085 361.942C744.905 361.811 744.757 361.647 744.643 361.45C744.544 361.27 744.462 361.057 744.446 360.828C744.446 360.779 744.446 360.729 744.446 360.664C744.446 360.533 744.462 360.402 744.495 360.271C744.528 360.123 744.593 359.992 744.659 359.877L753.834 343.986C754.391 343.035 755.963 343.035 756.504 343.986L765.548 359.664C765.777 359.927 765.925 360.287 765.925 360.664C765.925 361.516 765.236 362.204 764.385 362.204C764.368 362.22 764.368 362.22 764.352 362.22ZM748.657 359.14H761.681L755.177 347.868L748.657 359.14Z" fill="#DBD9D9"/>
<path d="M271.721 544.485C271.508 544.485 271.295 544.436 271.082 544.354C270.918 544.272 270.754 544.174 270.623 544.026C270.525 543.928 270.427 543.813 270.361 543.682L261.203 527.823C261.137 527.709 261.072 527.561 261.039 527.43C261.006 527.299 260.99 527.168 260.99 527.037C260.99 526.988 260.99 526.939 260.99 526.873C261.006 526.66 261.088 526.447 261.187 526.267C261.301 526.087 261.449 525.906 261.629 525.775C261.776 525.661 261.957 525.579 262.137 525.53C262.284 525.497 262.432 525.48 262.563 525.48H280.879C281.027 525.464 281.174 525.497 281.305 525.53C281.486 525.579 281.649 525.661 281.797 525.759C281.977 525.89 282.125 526.054 282.239 526.25C282.354 526.431 282.419 526.644 282.436 526.873C282.436 526.922 282.436 526.971 282.436 527.037C282.436 527.168 282.419 527.299 282.387 527.446C282.354 527.577 282.288 527.709 282.223 527.84L273.065 543.699C272.999 543.83 272.901 543.944 272.802 544.043C272.671 544.174 272.507 544.272 272.344 544.354C272.147 544.436 271.934 544.485 271.721 544.485ZM265.217 528.577L271.721 539.849L278.225 528.577H265.217Z" fill="white"/>
<path d="M382.669 504.33C382.685 504.297 382.718 504.264 382.735 504.231C382.767 504.166 382.784 504.117 382.833 504.051C382.882 503.969 388.567 496.498 385.536 493.451C384.963 492.878 384.373 492.648 383.603 492.665C381.277 492.763 378.377 495.532 377.443 496.597C376.23 498.694 369.743 509.9 365.909 516.486C368.301 516.715 371.201 517.911 374.035 519.927C379.196 511.473 382.62 504.411 382.669 504.33Z" fill="#EFA970"/>
<path d="M360.404 520.238C360.437 520.041 360.502 519.845 360.634 519.648C361.158 518.862 369.448 504.559 374.936 495.073C375.854 492.927 377.803 486.75 375.149 485.194C373.068 483.982 368.35 489.47 365.729 493.894L353.277 515.913C355.653 516.814 358.209 518.387 360.404 520.238Z" fill="#EFA970"/>
<path d="M340.646 568.028C344.807 564.817 348.559 564.014 352.163 563.244C353.048 563.048 353.933 562.851 354.817 562.622C353.425 560.131 351.983 557.723 350.541 555.593C339.843 539.816 335.485 529.314 337.615 524.35C338.582 522.089 340.089 521.319 341.186 521.057C342.481 520.762 343.808 521.041 344.938 521.499C344.807 520.156 344.856 518.665 345.446 517.469C345.938 516.453 346.757 515.749 347.805 515.388C348.526 515.143 349.362 515.093 350.279 515.192L362.878 492.894C362.632 491.747 361.944 489.585 360.65 488.913C360.371 488.765 359.536 488.339 357.734 489.29C353.425 491.567 341.383 511.604 334.355 524.497C334.027 525.104 333.322 525.399 332.667 525.218C332.012 525.038 331.553 524.416 331.586 523.727C331.782 518.976 331.111 511.669 329.014 510.277C328.833 510.162 328.424 509.884 327.424 510.359C323.738 512.112 322.542 520.418 321.264 529.232C320.429 535.081 319.544 541.127 317.873 546.73C313.679 560.721 295.87 576.187 292.741 578.808C292.741 578.808 293.101 584.411 300.556 589.31C308.027 594.209 314.809 590.997 314.809 590.997C314.875 590.866 314.957 590.735 315.071 590.637C315.219 590.49 331.094 575.368 340.646 568.028Z" fill="#EFA970"/>
<path d="M389.927 508.131C389.763 507.033 389.304 506.624 388.96 506.411C387.879 505.739 386.077 505.985 385.045 506.214C384.094 508.131 380.851 514.471 376.362 521.811C377.508 522.843 378.606 524.006 379.622 525.301C379.9 524.58 380.31 523.859 380.9 523.22C381.948 522.106 383.406 521.5 385.127 521.5C385.307 521.5 385.52 521.549 385.7 521.565C388.502 514.995 390.156 509.786 389.927 508.131Z" fill="#EFA970"/>
<path d="M417.041 591.309C414.977 585.64 414.338 580.561 413.65 575.204C412.782 568.29 411.864 561.147 407.768 551.891C400.494 535.409 389.304 524.481 385.094 524.481C384.193 524.481 383.521 524.743 383.03 525.268C382.178 526.185 381.948 527.774 381.915 528.659C383.21 530.232 387.666 535.95 390.73 543.781C391.025 544.534 390.648 545.403 389.894 545.698C389.714 545.763 389.534 545.796 389.353 545.796C388.764 545.796 388.207 545.435 387.977 544.862C384.635 536.31 379.376 530.248 379.327 530.183C379.294 530.15 379.294 530.101 379.261 530.084C379.229 530.035 379.179 530.002 379.163 529.953C374.92 522.63 368.039 519.14 364.68 519.451C364.172 519.501 364.058 519.681 363.992 519.779C363.402 520.762 364.058 523.465 364.697 525.055C365.565 526.398 374.101 539.652 376.755 546.091C377.066 546.844 376.706 547.713 375.952 548.024C375.772 548.106 375.575 548.139 375.395 548.139C374.821 548.139 374.264 547.795 374.035 547.221C371.397 540.832 362.239 526.677 362.141 526.545C358.717 521.221 351.18 517.42 348.739 518.239C348.444 518.337 348.248 518.518 348.1 518.813C347.478 520.074 348.035 522.695 348.444 523.924C349.722 525.775 359.847 540.57 363.927 548.728C364.287 549.466 363.992 550.35 363.271 550.711C363.058 550.809 362.829 550.858 362.616 550.858C362.075 550.858 361.551 550.563 361.289 550.039C357.357 542.159 347.216 527.332 346.02 525.595C345.266 524.989 343.234 523.646 341.842 523.973C341.612 524.022 340.908 524.186 340.335 525.546C338.729 529.298 343.447 539.931 352.982 553.971C360.339 564.817 367.547 582.183 367.859 582.921C368.121 583.543 367.908 584.264 367.367 584.674C366.826 585.083 366.073 585.05 365.549 584.624C360.945 580.791 354.129 579.759 351.328 581.413C350.607 581.839 349.689 582.658 350.115 584.739C351.098 589.638 362.141 594.209 372.806 598.632C377.099 600.402 381.539 602.253 385.716 604.235C398.102 610.117 403.132 626.025 405.278 632.808C405.589 633.824 405.95 634.938 406.163 635.429C406.376 635.593 406.54 635.839 406.638 636.101C406.671 636.183 406.654 636.248 406.671 636.33C406.671 636.33 411.75 641.114 423.333 639.312C434.916 637.51 435.915 631.399 435.915 631.399C435.391 630.006 433.359 625.992 431 621.323C426.38 612.099 420.023 599.5 417.041 591.309Z" fill="#EFC58B"/>
<path d="M351.95 525.382C351.95 525.382 348.002 523.465 348.625 521.745C349.263 519.959 351.393 518.501 352.688 518.993C353.916 519.468 355.063 522.22 354.965 522.859C354.883 523.498 353.228 525.775 351.95 525.382Z" fill="white"/>
<path d="M343.841 531.952C343.841 531.952 339.892 530.035 340.515 528.315C341.154 526.529 343.284 525.071 344.578 525.563C345.807 526.038 346.953 528.79 346.855 529.429C346.773 530.068 345.118 532.345 343.841 531.952Z" fill="white"/>
<path d="M367.58 526.152C367.58 526.152 363.632 524.235 364.254 522.515C364.893 520.729 367.023 519.271 368.317 519.763C369.546 520.238 370.693 522.99 370.595 523.629C370.513 524.285 368.874 526.562 367.58 526.152Z" fill="white"/>
<path d="M386.454 530.756C386.454 530.756 382.718 528.954 383.324 527.316C383.931 525.628 385.946 524.252 387.175 524.711C388.338 525.169 389.419 527.774 389.321 528.364C389.222 528.987 387.682 531.133 386.454 530.756Z" fill="white"/>
<path d="M423.349 639.263C434.096 637.592 435.718 632.218 435.899 631.448L435.915 631.35C435.849 631.186 435.768 630.989 435.669 630.776C435.636 630.694 435.604 630.612 435.555 630.53C435.489 630.383 435.407 630.203 435.325 630.023C435.276 629.908 435.21 629.793 435.161 629.662C435.079 629.482 434.981 629.302 434.899 629.105C434.834 628.958 434.768 628.827 434.686 628.679C434.604 628.499 434.506 628.302 434.408 628.122C434.211 627.712 433.998 627.27 433.752 626.811C433.72 626.729 433.67 626.664 433.638 626.582C433.277 625.861 432.9 625.091 432.491 624.288C425.036 628.679 415.829 631.219 407.867 621.257C397.562 608.38 387.011 604.776 385.7 604.202C398.086 610.084 403.116 625.992 405.262 632.775C405.573 633.791 405.933 634.905 406.146 635.396C406.359 635.56 406.523 635.806 406.622 636.068C406.622 636.068 406.72 636.232 406.9 636.51C408.08 637.395 413.24 640.836 423.349 639.263Z" fill="#EFA970"/>
<path d="M348.641 552.742C348.199 552.071 347.789 551.432 347.379 550.776C347.216 550.531 347.052 550.269 346.888 550.023C346.364 549.187 345.872 548.384 345.381 547.598C345.348 547.549 345.315 547.483 345.282 547.434C342.727 543.191 340.761 539.456 339.401 536.228C340.662 542.896 342.251 552.3 342.251 557.412C342.251 564.44 317.545 581.872 304.553 591.276C308.01 592.406 311.008 592.079 312.86 591.653L314.809 591.03C314.875 590.899 314.957 590.768 315.071 590.67C315.235 590.522 331.111 575.401 340.662 568.044C344.824 564.833 348.575 564.031 352.18 563.261C353.064 563.064 353.949 562.867 354.834 562.638C353.441 560.148 352 557.739 350.558 555.609C349.886 554.626 349.263 553.676 348.641 552.742Z" fill="#E38E65"/>
<path d="M334.83 495.876L318.741 478.739C318.152 478.116 318.184 477.133 318.807 476.56C319.429 475.986 320.396 476.003 320.986 476.625C320.986 476.625 320.986 476.625 321.002 476.642L337.091 493.779C337.68 494.401 337.648 495.384 337.025 495.958C336.386 496.515 335.42 496.498 334.83 495.876Z" fill="white"/>
<path d="M341.318 492.796L336.173 474.791C335.993 474.135 336.501 473.414 337.32 473.185C338.139 472.956 338.942 473.283 339.139 473.922C339.139 473.922 339.139 473.922 339.139 473.939L344.283 491.944C344.463 492.599 343.955 493.32 343.136 493.549C342.317 493.779 341.498 493.451 341.318 492.796Z" fill="white"/>
<path d="M329.98 503.052L313.482 494.188C312.876 493.861 312.729 492.992 313.122 492.239C313.515 491.485 314.318 491.141 314.924 491.452C314.924 491.452 314.924 491.452 314.94 491.452L331.422 500.316C332.028 500.643 332.176 501.512 331.782 502.265C331.389 503.019 330.586 503.379 329.98 503.052Z" fill="white"/>
<path d="M408.243 529.773L426.478 514.93C427.133 514.389 428.116 514.487 428.657 515.159C429.198 515.814 429.099 516.781 428.444 517.322C428.444 517.322 428.444 517.322 428.428 517.322L410.209 532.165C409.554 532.705 408.571 532.607 408.031 531.935C407.49 531.28 407.588 530.314 408.243 529.773Z" fill="white"/>
<path d="M413.814 536.392L432.147 532.525C432.818 532.378 433.49 532.951 433.67 533.787C433.851 534.622 433.457 535.409 432.802 535.556C432.802 535.556 432.802 535.556 432.786 535.556L414.469 539.423C413.797 539.57 413.126 538.997 412.946 538.161C412.765 537.309 413.159 536.539 413.814 536.392Z" fill="white"/>
<path d="M433.654 619.947C429.05 610.821 422.743 598.337 419.81 590.309C417.86 584.952 417.238 580.037 416.583 574.844C415.681 567.733 414.748 560.361 410.472 550.695C404.131 536.359 394.826 525.661 388.485 522.515C391.401 515.634 393.171 509.998 392.843 507.737C392.532 505.591 391.401 504.477 390.5 503.92C389.435 503.265 388.19 503.052 387.043 503.035C388.862 499.824 390.894 494.663 387.617 491.387C386.47 490.24 385.028 489.667 383.488 489.748C381.948 489.814 380.457 490.469 379.147 491.289C379.72 488.159 379.622 484.44 376.607 482.671C372.479 480.263 367.613 485.882 364.926 489.683C364.336 488.389 363.419 487.045 361.993 486.308C360.863 485.718 358.962 485.309 356.341 486.701C351.164 489.437 339.745 508.868 334.404 518.305C334.109 514.34 333.191 509.556 330.603 507.836C329.702 507.246 328.194 506.738 326.114 507.705C321.002 510.129 319.741 518.796 318.299 528.823C317.463 534.573 316.611 540.504 314.989 545.894C310.746 560.049 290.578 576.76 290.365 576.924C289.743 577.449 289.644 578.366 290.169 579.005C290.693 579.627 291.61 579.726 292.249 579.202C292.315 579.152 292.462 579.021 292.692 578.825C295.821 576.187 313.63 560.721 317.824 546.746C319.511 541.143 320.38 535.098 321.215 529.249C322.493 520.434 323.689 512.128 327.375 510.375C328.375 509.9 328.784 510.178 328.964 510.293C331.062 511.686 331.733 518.993 331.537 523.744C331.504 524.432 331.963 525.038 332.618 525.235C333.273 525.415 333.978 525.12 334.305 524.514C341.35 511.62 353.376 491.583 357.684 489.306C359.487 488.356 360.322 488.782 360.601 488.929C361.895 489.601 362.599 491.764 362.829 492.91L350.23 515.208C349.329 515.11 348.493 515.175 347.756 515.405C346.708 515.749 345.888 516.47 345.397 517.485C344.807 518.681 344.742 520.172 344.889 521.516C343.759 521.057 342.432 520.779 341.137 521.073C340.04 521.319 338.532 522.106 337.566 524.366C335.436 529.331 339.794 539.849 350.492 555.61C351.934 557.739 353.376 560.148 354.768 562.638C353.884 562.867 352.999 563.064 352.114 563.261C348.493 564.047 344.758 564.85 340.597 568.044C331.045 575.384 315.17 590.506 315.006 590.67C314.891 590.785 314.826 590.899 314.744 591.03C314.432 591.571 314.498 592.275 314.957 592.751C315.252 593.062 315.628 593.209 316.022 593.209C316.382 593.209 316.759 593.078 317.037 592.8C317.201 592.652 332.962 577.629 342.382 570.387C346.02 567.586 349.28 566.881 352.72 566.144C353.867 565.898 355.03 565.636 356.21 565.308C359.044 570.633 361.551 576.04 363.173 579.66C358.422 577.399 352.982 576.941 349.755 578.857C347.51 580.185 346.593 582.478 347.15 585.296C348.444 591.751 359.175 596.191 371.61 601.335C375.87 603.105 380.277 604.923 384.389 606.873C395.628 612.214 400.379 627.238 402.411 633.66C403.345 636.625 403.607 637.412 404.426 637.838C404.639 637.952 404.901 638.001 405.163 638.001C405.327 638.001 405.491 637.985 405.639 637.936C406.343 637.706 406.72 637.002 406.605 636.297C406.589 636.216 406.605 636.15 406.572 636.068C406.474 635.79 406.31 635.56 406.097 635.396C405.884 634.905 405.54 633.791 405.213 632.775C403.066 625.992 398.037 610.084 385.651 604.203C381.473 602.22 377.033 600.385 372.741 598.599C362.059 594.176 351.033 589.605 350.05 584.706C349.624 582.626 350.541 581.806 351.262 581.381C354.064 579.709 360.879 580.742 365.483 584.592C366.007 585.018 366.761 585.05 367.302 584.641C367.842 584.231 368.055 583.51 367.793 582.888C367.482 582.151 360.289 564.801 352.917 553.938C343.382 539.898 338.647 529.265 340.269 525.513C340.842 524.154 341.547 523.99 341.776 523.941C343.169 523.613 345.2 524.94 345.954 525.562C347.15 527.299 357.291 542.126 361.223 550.006C361.485 550.531 362.01 550.826 362.55 550.826C362.763 550.826 362.993 550.776 363.206 550.678C363.927 550.318 364.238 549.433 363.861 548.696C359.782 540.537 349.657 525.743 348.379 523.891C347.969 522.663 347.412 520.025 348.035 518.78C348.182 518.485 348.379 518.305 348.674 518.206C351.115 517.387 358.651 521.188 362.075 526.513C362.174 526.66 371.332 540.815 373.97 547.188C374.199 547.762 374.756 548.106 375.329 548.106C375.526 548.106 375.706 548.073 375.886 547.991C376.64 547.68 377 546.812 376.689 546.058C374.035 539.619 365.499 526.365 364.631 525.022C363.992 523.433 363.337 520.729 363.927 519.746C363.992 519.648 364.107 519.451 364.615 519.419C367.957 519.107 374.854 522.597 379.098 529.92C379.13 529.97 379.163 530.002 379.196 530.051C379.212 530.084 379.229 530.117 379.261 530.15C379.31 530.215 384.57 536.277 387.912 544.829C388.141 545.403 388.698 545.763 389.288 545.763C389.468 545.763 389.648 545.73 389.829 545.665C390.582 545.37 390.959 544.518 390.664 543.748C387.6 535.917 383.144 530.199 381.85 528.626C381.883 527.741 382.096 526.136 382.964 525.235C383.455 524.711 384.144 524.448 385.028 524.448C389.239 524.448 400.429 535.376 407.703 551.858C411.799 561.131 412.7 568.274 413.584 575.171C414.273 580.545 414.911 585.607 416.976 591.276C419.958 599.468 426.314 612.066 430.951 621.241C433.31 625.91 435.342 629.941 435.866 631.317C435.899 631.382 435.931 631.481 435.948 631.53C436.21 632.3 437.045 632.726 437.815 632.464C438.585 632.202 439.011 631.366 438.749 630.596C438.356 629.269 436.374 625.353 433.654 619.947ZM385.094 521.516C383.39 521.516 381.932 522.106 380.867 523.236C380.277 523.859 379.868 524.579 379.589 525.317C378.573 524.022 377.476 522.859 376.329 521.827C380.818 514.487 384.062 508.147 385.012 506.23C386.044 505.984 387.846 505.755 388.928 506.427C389.272 506.64 389.747 507.049 389.894 508.147C390.123 509.802 388.469 514.995 385.651 521.598C385.487 521.565 385.274 521.516 385.094 521.516ZM365.712 493.91C368.334 489.486 373.068 483.998 375.133 485.21C377.787 486.75 375.854 492.943 374.92 495.089C369.431 504.575 361.141 518.878 360.617 519.664C360.502 519.845 360.421 520.041 360.388 520.254C358.192 518.403 355.637 516.83 353.261 515.945L365.712 493.91ZM377.443 496.613C378.377 495.548 381.276 492.779 383.603 492.681C384.357 492.648 384.963 492.894 385.536 493.468C388.583 496.515 382.898 503.986 382.833 504.068C382.784 504.117 382.767 504.182 382.735 504.248C382.718 504.28 382.685 504.297 382.669 504.346C382.62 504.428 379.196 511.489 374.035 519.959C371.201 517.928 368.301 516.748 365.909 516.519C369.759 509.916 376.23 498.71 377.443 496.613Z" fill="#27213B"/>
<path d="M533.527 469.482H528.579H425.266H420.318C414.518 469.482 409.374 477.903 408.276 488.929H545.569C544.471 477.903 539.327 469.482 533.527 469.482Z" fill="#FFCF36"/>
<path d="M518.602 453.738H487.26H466.585H435.243C431.442 453.738 427.936 459.243 426.921 466.533H526.941C525.909 459.243 522.403 453.738 518.602 453.738Z" fill="#FF8E36"/>
<path d="M481.69 420.922C481.477 420.938 481.248 420.955 481.035 420.971C479.675 421.069 478.299 421.118 476.906 421.118C475.513 421.118 474.154 421.053 472.777 420.971C472.564 420.955 472.335 420.938 472.122 420.922C470.746 420.824 469.386 420.676 468.043 420.479V450.772H485.753V420.479C484.426 420.676 483.066 420.807 481.69 420.922Z" fill="#FF8E36"/>
<path d="M481.69 420.922C481.526 420.938 481.346 420.955 481.182 420.955L480.969 450.772H485.786V420.479C484.426 420.676 483.066 420.807 481.69 420.922Z" fill="#D17031"/>
<path d="M531.151 381.684C531.315 381.258 531.495 380.848 531.643 380.422C531.823 379.947 531.987 379.488 532.151 379.013C532.282 378.636 532.396 378.276 532.528 377.899C532.691 377.375 532.872 376.867 533.019 376.343C533.117 376.015 533.216 375.687 533.298 375.343C533.461 374.77 533.609 374.213 533.756 373.64C534.87 369.134 535.46 364.448 535.46 359.599V337.924V326.865V326.324H418.319V326.865V337.94V359.615C418.319 364.432 418.909 369.118 420.023 373.607C420.171 374.213 420.334 374.819 420.515 375.425C420.597 375.72 420.678 376.015 420.76 376.294C420.924 376.851 421.104 377.391 421.285 377.948C421.399 378.292 421.514 378.636 421.629 378.964C421.809 379.456 421.989 379.964 422.169 380.455C422.317 380.848 422.481 381.241 422.644 381.635C422.825 382.061 422.988 382.487 423.185 382.913C432.212 403.637 452.888 418.169 476.906 418.169C500.924 418.169 521.616 403.621 530.643 382.88C530.824 382.487 530.987 382.077 531.151 381.684Z" fill="#FFCF36"/>
<path d="M418.352 326.865V335.122H535.476V326.865V326.324H418.352V326.865Z" fill="#FFB336"/>
<path d="M416.878 323.359H536.967H538.442C540.621 323.359 542.39 321.295 542.39 318.739C542.39 316.2 540.621 314.119 538.442 314.119H535.821H418.008H415.387C413.208 314.119 411.455 316.183 411.455 318.739C411.455 321.278 413.224 323.359 415.387 323.359H416.878Z" fill="#FF8E36"/>
<path d="M400.855 328.422C387.617 333.321 381.375 349.524 386.929 364.531C391.303 376.36 401.805 384.305 413.077 384.305C415.485 384.305 417.844 383.929 420.105 383.208C419.089 380.783 418.237 378.293 417.549 375.753C415.862 376.294 414.092 376.573 412.307 376.573C404.033 376.573 396.333 370.806 393.154 362.237C389.108 351.293 393.777 339.448 403.574 335.811C407.326 334.418 411.487 334.418 415.387 335.745V327.963C413.191 327.341 410.947 327.029 408.735 327.029C406.032 327.029 403.378 327.488 400.855 328.422Z" fill="#FFC736"/>
<path d="M394.613 365.399C394.645 365.497 394.678 365.612 394.711 365.71C397.889 374.295 405.573 380.046 413.847 380.046C415.485 380.046 417.09 379.8 418.647 379.358C418.237 378.162 417.877 376.966 417.549 375.753C415.862 376.294 414.092 376.572 412.307 376.572C405.114 376.572 398.348 372.198 394.613 365.399Z" fill="#FF8E36"/>
<path d="M388.485 368.02C382.931 352.997 389.173 336.81 402.411 331.912C404.934 330.978 407.588 330.503 410.291 330.503C411.995 330.503 413.699 330.699 415.403 331.06V327.963C413.208 327.341 410.963 327.029 408.751 327.029C406.048 327.029 403.394 327.504 400.871 328.438C387.633 333.337 381.391 349.54 386.945 364.547C387.404 365.792 387.945 366.972 388.534 368.119C388.502 368.086 388.485 368.053 388.485 368.02Z" fill="#FFE89A"/>
<path d="M538.442 335.745C542.341 334.418 546.486 334.434 550.254 335.81C555.038 337.58 558.741 341.315 560.707 346.345C562.64 351.309 562.624 356.961 560.674 362.22C557.496 370.789 549.812 376.556 541.538 376.556C539.753 376.556 538 376.277 536.296 375.737C535.608 378.26 534.756 380.766 533.74 383.191C536.017 383.928 538.376 384.289 540.768 384.289C552.024 384.289 562.542 376.343 566.916 364.514C572.47 349.507 566.228 333.304 552.99 328.405C548.403 326.701 543.357 326.554 538.458 327.93V335.745H538.442Z" fill="#FF8E36"/>
<path d="M539.966 380.046C548.239 380.046 555.939 374.279 559.101 365.71C559.134 365.612 559.167 365.497 559.2 365.399C555.481 372.198 548.714 376.572 541.506 376.572C539.72 376.572 537.967 376.294 536.263 375.753C535.935 376.966 535.558 378.162 535.165 379.358C536.722 379.816 538.344 380.046 539.966 380.046Z" fill="#D17031"/>
<path d="M552.974 328.422C548.387 326.718 543.34 326.57 538.442 327.947V331.043C542.849 330.093 547.322 330.371 551.434 331.895C564.672 336.794 570.914 352.997 565.36 368.004C565.343 368.037 565.343 368.069 565.327 368.086C565.917 366.939 566.457 365.759 566.9 364.531C572.454 349.523 566.212 333.32 552.974 328.422Z" fill="#FFC736"/>
<path d="M534.117 311.187C532.052 300.243 522.009 292.166 510.082 292.166H484.803H469.058H443.779C431.852 292.166 421.809 300.226 419.745 311.187H534.117Z" fill="#FFCF36"/>
<path d="M534.117 311.187C532.052 300.243 522.009 292.166 510.082 292.166H484.803H469.058H443.779C431.852 292.166 421.809 300.226 419.745 311.187H534.117Z" fill="#FFCF36"/>
<path d="M533.527 469.482H528.579H499.941C505.741 469.482 510.885 477.903 511.983 488.929H545.569C544.471 477.903 539.327 469.482 533.527 469.482Z" fill="#FFB336"/>
<path d="M518.602 453.738H487.26H485.016C488.817 453.738 492.323 459.243 493.339 466.533H526.924C525.909 459.243 522.403 453.738 518.602 453.738Z" fill="#D17031"/>
<path d="M501.891 326.324V326.865V337.924V359.599C501.891 364.432 501.284 369.134 500.187 373.64C500.039 374.213 499.892 374.786 499.728 375.343C499.63 375.671 499.548 376.015 499.45 376.343C499.302 376.867 499.122 377.375 498.958 377.899C498.827 378.276 498.712 378.636 498.581 379.013C498.417 379.488 498.237 379.947 498.057 380.422C497.893 380.848 497.729 381.258 497.565 381.684C497.402 382.093 497.238 382.487 497.058 382.88C490.226 398.591 476.709 410.715 460.13 415.696C465.454 417.301 471.09 418.169 476.922 418.169C500.94 418.169 521.633 403.621 530.66 382.88C530.84 382.487 531.004 382.077 531.168 381.684C531.332 381.258 531.512 380.848 531.659 380.422C531.839 379.947 532.003 379.488 532.167 379.013C532.298 378.636 532.413 378.276 532.544 377.899C532.708 377.375 532.888 376.867 533.035 376.343C533.134 376.015 533.232 375.687 533.314 375.343C533.478 374.77 533.625 374.213 533.773 373.64C534.887 369.134 535.477 364.448 535.477 359.599V337.924V326.865V326.324H501.891Z" fill="#FFB336"/>
<path d="M538.442 314.135H535.821H501.76C503.939 314.135 505.708 316.2 505.708 318.755C505.708 321.295 503.939 323.375 501.76 323.375H536.967H538.442C540.621 323.375 542.39 321.311 542.39 318.755C542.374 316.216 540.604 314.135 538.442 314.135Z" fill="#D17031"/>
<path d="M510.066 292.166H484.786H476.48C488.407 292.166 498.45 300.226 500.514 311.187H534.1C532.052 300.243 522.009 292.166 510.066 292.166Z" fill="#FFB336"/>
<path d="M533.527 469.482H528.579H525.81C531.61 469.482 536.754 477.903 537.852 488.929H545.569C544.471 477.903 539.327 469.482 533.527 469.482Z" fill="#FF9536"/>
<path d="M518.602 453.738H510.885C514.686 453.738 518.192 459.243 519.208 466.533H526.924C525.909 459.243 522.403 453.738 518.602 453.738Z" fill="#B84F31"/>
<path d="M527.76 326.324V326.865V337.924V359.599C527.76 364.432 527.154 369.134 526.056 373.64C525.909 374.213 525.761 374.786 525.597 375.343C525.499 375.671 525.417 376.015 525.319 376.343C525.171 376.867 524.991 377.375 524.827 377.899C524.696 378.276 524.582 378.636 524.45 379.013C524.287 379.488 524.106 379.947 523.943 380.422C523.779 380.848 523.615 381.258 523.451 381.684C523.287 382.093 523.123 382.487 522.943 382.88C514.408 402.507 495.419 416.564 473.04 418.022C474.334 418.104 475.628 418.169 476.922 418.169C500.94 418.169 521.633 403.621 530.66 382.88C530.84 382.487 531.004 382.077 531.168 381.684C531.332 381.258 531.512 380.848 531.659 380.422C531.839 379.947 532.003 379.488 532.167 379.013C532.298 378.636 532.413 378.276 532.544 377.899C532.708 377.375 532.888 376.867 533.035 376.343C533.134 376.015 533.232 375.687 533.314 375.343C533.478 374.77 533.625 374.213 533.773 373.64C534.887 369.134 535.477 364.448 535.477 359.599V337.924V326.865V326.324H527.76Z" fill="#FF9536"/>
<path d="M538.442 314.135H535.821H530.709C532.888 314.135 534.657 316.2 534.657 318.755C534.657 321.295 532.888 323.375 530.709 323.375H536.951H538.425C540.604 323.375 542.374 321.311 542.374 318.755C542.374 316.216 540.604 314.135 538.442 314.135Z" fill="#B84F31"/>
<path d="M510.066 292.166H502.349C514.276 292.166 524.319 300.226 526.384 311.187H534.1C532.052 300.243 522.009 292.166 510.066 292.166Z" fill="#FF9536"/>
<path d="M483.312 281.352C483.312 277.83 480.445 274.947 476.922 274.947C473.4 274.947 470.517 277.814 470.517 281.352V289.233H483.312V281.352Z" fill="#FF8E36"/>
<path d="M433.818 469.482H425.249H420.302C414.502 469.482 409.358 477.903 408.26 488.929H421.776C422.89 477.903 428.018 469.482 433.818 469.482Z" fill="#FFE89A"/>
<path d="M448.759 453.738H435.243C431.442 453.738 427.936 459.243 426.921 466.533H440.437C441.436 459.243 444.942 453.738 448.759 453.738Z" fill="#FFC736"/>
<path d="M436.718 382.913C436.538 382.487 436.357 382.061 436.177 381.635C436.013 381.241 435.866 380.848 435.702 380.455C435.522 379.964 435.325 379.472 435.161 378.964C435.047 378.62 434.932 378.292 434.817 377.948C434.637 377.408 434.457 376.851 434.293 376.294C434.211 375.999 434.129 375.704 434.047 375.425C433.883 374.819 433.703 374.213 433.556 373.607C432.458 369.118 431.852 364.432 431.852 359.615V337.94V326.865V326.324H418.336V326.865V337.94V359.615C418.336 364.432 418.925 369.118 420.039 373.607C420.187 374.213 420.351 374.819 420.531 375.425C420.613 375.72 420.695 376.015 420.777 376.294C420.941 376.851 421.121 377.391 421.301 377.948C421.416 378.292 421.53 378.636 421.645 378.964C421.825 379.456 422.005 379.964 422.186 380.455C422.333 380.848 422.497 381.241 422.661 381.635C422.841 382.061 423.005 382.487 423.201 382.913C432.229 403.637 452.904 418.169 476.922 418.169C479.216 418.169 481.461 417.989 483.672 417.744C462.587 415.302 444.877 401.671 436.718 382.913Z" fill="#FFE89A"/>
<path d="M431.868 326.865V326.324H418.352V326.865V335.122H431.868V326.865Z" fill="#FFCF36"/>
<path d="M424.971 318.755C424.971 316.216 426.74 314.135 428.903 314.135H418.008H415.387C413.208 314.135 411.455 316.2 411.455 318.755C411.455 321.295 413.224 323.375 415.387 323.375H416.861H428.903C426.74 323.359 424.971 321.295 424.971 318.755Z" fill="#FFC736"/>
<path d="M457.279 292.166H443.763C431.835 292.166 421.793 300.226 419.728 311.187H433.244C435.309 300.243 445.352 292.166 457.279 292.166Z" fill="#FFE89A"/>
<path d="M479.036 275.34C478.364 275.11 477.66 274.947 476.906 274.947C473.384 274.947 470.5 277.814 470.5 281.352V289.233H474.743V281.352C474.76 278.567 476.562 276.224 479.036 275.34Z" fill="#FFC736"/>
<path d="M474.055 421.037C473.629 421.02 473.203 421.004 472.794 420.971C472.581 420.955 472.351 420.938 472.139 420.922C470.762 420.824 469.403 420.676 468.059 420.479V450.772H474.055V421.037V421.037Z" fill="#FFC736"/>
<path d="M452.872 383.24C457.688 390.662 458.229 398.87 454.084 401.557C449.939 404.244 442.681 400.41 437.865 392.972C433.048 385.55 432.507 377.342 436.652 374.655C440.781 371.968 448.055 375.819 452.872 383.24Z" fill="#FFE89A"/>
<path d="M477.922 204.596C477.07 204.596 476.382 203.908 476.382 203.056V189.54C476.382 188.688 477.07 188 477.922 188C478.774 188 479.462 188.688 479.462 189.54V203.056C479.462 203.908 478.774 204.596 477.922 204.596Z" fill="#93909D"/>
<path d="M477.922 256.482C477.07 256.482 476.382 255.794 476.382 254.942V218.473C476.382 217.621 477.07 216.933 477.922 216.933C478.774 216.933 479.462 217.621 479.462 218.473V254.926C479.462 255.778 478.774 256.482 477.922 256.482Z" fill="#93909D"/>
<path d="M435.669 217.408C435.161 217.408 434.67 217.162 434.359 216.687L427.084 205.301C426.626 204.58 426.839 203.63 427.559 203.171C428.28 202.712 429.231 202.925 429.689 203.646L436.963 215.032C437.422 215.753 437.209 216.704 436.488 217.162C436.243 217.326 435.964 217.408 435.669 217.408Z" fill="#DBD9D9"/>
<path d="M463.603 261.119C463.095 261.119 462.587 260.873 462.292 260.398L442.665 229.679C442.206 228.958 442.419 228.008 443.14 227.549C443.861 227.09 444.811 227.303 445.27 228.024L464.897 258.743C465.356 259.464 465.143 260.414 464.422 260.873C464.176 261.037 463.881 261.119 463.603 261.119Z" fill="#DBD9D9"/>
<path d="M414.748 245.358C414.453 245.358 414.141 245.276 413.879 245.096L404.524 238.739C403.82 238.264 403.64 237.297 404.115 236.593C404.59 235.889 405.557 235.708 406.261 236.183L415.616 242.54C416.32 243.015 416.501 243.982 416.026 244.686C415.714 245.112 415.239 245.358 414.748 245.358Z" fill="#93909D"/>
<path d="M450.644 269.769C450.349 269.769 450.037 269.688 449.775 269.507L424.545 252.354C423.84 251.879 423.66 250.912 424.135 250.208C424.61 249.503 425.577 249.323 426.282 249.798L451.512 266.952C452.216 267.427 452.397 268.393 451.921 269.098C451.627 269.524 451.135 269.769 450.644 269.769Z" fill="#93909D"/>
<path d="M521.354 217.408C521.076 217.408 520.781 217.326 520.518 217.162C519.798 216.704 519.585 215.753 520.043 215.032L527.318 203.646C527.776 202.925 528.727 202.712 529.447 203.171C530.168 203.63 530.381 204.58 529.923 205.301L522.648 216.687C522.353 217.146 521.862 217.408 521.354 217.408Z" fill="#DBD9D9"/>
<path d="M493.42 261.119C493.142 261.119 492.847 261.037 492.585 260.873C491.864 260.414 491.651 259.464 492.11 258.743L511.737 228.024C512.196 227.303 513.146 227.09 513.867 227.549C514.588 228.008 514.801 228.958 514.342 229.679L494.715 260.398C494.436 260.856 493.928 261.119 493.42 261.119Z" fill="#DBD9D9"/>
<path d="M542.292 245.358C541.8 245.358 541.309 245.129 541.014 244.686C540.539 243.982 540.719 243.015 541.424 242.54L550.779 236.183C551.483 235.708 552.45 235.889 552.925 236.593C553.4 237.297 553.22 238.264 552.515 238.739L543.16 245.096C542.882 245.26 542.587 245.358 542.292 245.358Z" fill="#93909D"/>
<path d="M506.38 269.769C505.888 269.769 505.397 269.54 505.102 269.098C504.627 268.393 504.807 267.427 505.511 266.952L530.742 249.798C531.446 249.323 532.413 249.503 532.888 250.208C533.363 250.912 533.183 251.879 532.478 252.354L507.248 269.507C506.986 269.671 506.675 269.769 506.38 269.769Z" fill="#93909D"/>
<path d="M558.79 279.206C557.938 279.206 557.25 278.518 557.25 277.683C557.25 276.831 557.922 276.126 558.774 276.126L567.49 276.044C568.309 276.044 569.046 276.716 569.046 277.568C569.046 278.42 568.374 279.124 567.522 279.124L558.79 279.206C558.806 279.206 558.806 279.206 558.79 279.206Z" fill="#DBD9D9"/>
<path d="M525.352 279.485C524.5 279.485 523.812 278.797 523.812 277.961C523.812 277.109 524.483 276.405 525.352 276.405L548.845 276.208H548.862C549.714 276.208 550.402 276.896 550.402 277.732C550.402 278.584 549.73 279.288 548.878 279.288L525.352 279.485C525.368 279.485 525.368 279.485 525.352 279.485Z" fill="#DBD9D9"/>
<path d="M404.328 279.206C404.311 279.206 404.311 279.206 404.328 279.206L395.612 279.141C394.76 279.141 394.072 278.436 394.088 277.584C394.088 276.732 394.727 276.011 395.645 276.06L404.361 276.142C405.213 276.142 405.901 276.847 405.884 277.699C405.868 278.518 405.163 279.206 404.328 279.206Z" fill="#DBD9D9"/>
<path d="M437.766 279.485C437.75 279.485 437.75 279.485 437.766 279.485L414.256 279.288C413.404 279.288 412.716 278.584 412.733 277.732C412.733 276.88 413.437 276.208 414.273 276.208H414.289L437.783 276.405C438.635 276.405 439.323 277.109 439.323 277.961C439.306 278.797 438.602 279.485 437.766 279.485Z" fill="#DBD9D9"/>
<path d="M387.207 461.815C386.929 461.815 386.634 461.733 386.372 461.569C385.651 461.11 385.438 460.16 385.897 459.439L393.171 448.053C393.63 447.332 394.58 447.119 395.301 447.577C396.022 448.036 396.234 448.986 395.776 449.707L388.502 461.094C388.223 461.552 387.715 461.815 387.207 461.815Z" fill="#93909D"/>
<path d="M402.788 437.436C402.509 437.436 402.214 437.354 401.952 437.191C401.231 436.732 401.018 435.782 401.477 435.061L421.104 404.342C421.563 403.621 422.513 403.408 423.234 403.867C423.955 404.326 424.168 405.276 423.709 405.997L404.082 436.716C403.787 437.174 403.296 437.436 402.788 437.436Z" fill="#93909D"/>
<path d="M370.332 435.618C369.923 435.618 369.497 435.454 369.202 435.126C368.629 434.504 368.661 433.521 369.284 432.947L377.59 425.264C378.213 424.69 379.196 424.723 379.769 425.345C380.343 425.968 380.31 426.951 379.687 427.524L371.381 435.208C371.086 435.487 370.709 435.618 370.332 435.618Z" fill="#DBD9D9"/>
<path d="M388.125 419.185C387.715 419.185 387.289 419.021 386.994 418.694C386.421 418.071 386.454 417.088 387.076 416.515L409.489 395.806C410.111 395.233 411.094 395.266 411.668 395.888C412.241 396.511 412.208 397.494 411.586 398.067L389.173 418.776C388.878 419.054 388.502 419.185 388.125 419.185Z" fill="#DBD9D9"/>
<path d="M355.522 410.863C354.916 410.863 354.342 410.502 354.097 409.896C353.769 409.109 354.146 408.208 354.932 407.881L363.566 404.342C364.353 404.014 365.254 404.391 365.581 405.177C365.909 405.964 365.532 406.865 364.746 407.193L356.112 410.731C355.915 410.83 355.718 410.863 355.522 410.863Z" fill="#93909D"/>
<path d="M374.002 403.294C373.396 403.294 372.823 402.933 372.577 402.327C372.249 401.541 372.626 400.64 373.412 400.312L396.693 390.777C397.48 390.449 398.381 390.826 398.708 391.629C399.036 392.415 398.659 393.316 397.873 393.644L374.592 403.179C374.395 403.261 374.199 403.294 374.002 403.294Z" fill="#93909D"/>
<path d="M565.769 463.863C565.261 463.863 564.754 463.617 564.459 463.142L557.184 451.755C556.726 451.034 556.939 450.084 557.66 449.625C558.38 449.167 559.331 449.38 559.789 450.101L567.064 461.487C567.522 462.208 567.309 463.158 566.588 463.617C566.343 463.797 566.064 463.863 565.769 463.863Z" fill="#93909D"/>
<path d="M550.205 439.484C549.697 439.484 549.189 439.238 548.894 438.763L529.267 408.045C528.808 407.324 529.021 406.374 529.742 405.915C530.463 405.456 531.413 405.669 531.872 406.39L551.499 437.109C551.958 437.83 551.745 438.78 551.024 439.238C550.779 439.419 550.484 439.484 550.205 439.484Z" fill="#93909D"/>
<path d="M582.644 437.682C582.267 437.682 581.89 437.551 581.596 437.273L573.289 429.589C572.667 429.015 572.618 428.032 573.207 427.41C573.781 426.787 574.764 426.738 575.386 427.328L583.693 435.012C584.315 435.585 584.364 436.568 583.775 437.191C583.48 437.518 583.054 437.682 582.644 437.682Z" fill="#DBD9D9"/>
<path d="M564.868 421.25C564.491 421.25 564.115 421.118 563.82 420.84L541.407 400.131C540.785 399.558 540.736 398.575 541.325 397.952C541.899 397.33 542.882 397.297 543.504 397.87L565.917 418.579C566.539 419.152 566.588 420.135 565.999 420.758C565.704 421.086 565.278 421.25 564.868 421.25Z" fill="#DBD9D9"/>
<path d="M597.455 412.927C597.258 412.927 597.061 412.894 596.865 412.812L588.231 409.273C587.444 408.946 587.068 408.045 587.395 407.258C587.723 406.472 588.624 406.095 589.41 406.423L598.044 409.962C598.831 410.289 599.208 411.19 598.896 411.977C598.651 412.567 598.077 412.927 597.455 412.927Z" fill="#93909D"/>
<path d="M578.991 405.358C578.794 405.358 578.597 405.325 578.401 405.243L555.12 395.708C554.334 395.38 553.957 394.479 554.268 393.693C554.596 392.906 555.497 392.529 556.283 392.841L579.564 402.376C580.35 402.704 580.727 403.605 580.4 404.391C580.17 404.997 579.597 405.358 578.991 405.358Z" fill="#93909D"/>
<path d="M399.839 325.653C385.077 331.108 378.049 349.015 384.176 365.563C388.977 378.538 400.592 387.271 413.093 387.271C415.911 387.271 418.68 386.795 421.334 385.894C429.591 403.277 445.745 416.187 465.126 419.972V450.772H435.26C429.738 450.772 425.118 457.326 423.955 466.517H420.334C412.454 466.517 406.097 476.511 405.213 490.289C405.18 490.699 405.327 491.092 405.606 491.387C405.884 491.682 406.277 491.845 406.687 491.845H547.191C547.6 491.845 547.993 491.682 548.272 491.387C548.55 491.092 548.698 490.682 548.665 490.289C547.78 476.511 541.424 466.517 533.543 466.517H529.906C528.759 457.309 524.123 450.772 518.618 450.772H488.751V419.972C508.133 416.187 524.303 403.277 532.544 385.894C535.198 386.795 537.967 387.271 540.768 387.271C553.252 387.271 564.885 378.555 569.685 365.563C575.812 349.015 568.784 331.125 554.022 325.653C550.598 324.391 546.961 323.883 543.291 324.129C544.569 322.753 545.356 320.852 545.356 318.739C545.356 314.561 542.259 311.17 538.458 311.17H537.098C535.001 298.555 523.648 289.2 510.099 289.2H486.294V281.319C486.294 276.159 482.1 271.965 476.939 271.965C471.778 271.965 467.584 276.159 467.584 281.319V289.2H443.779C430.23 289.2 418.86 298.555 416.779 311.17H415.419C411.618 311.17 408.522 314.561 408.522 318.739C408.522 320.852 409.308 322.753 410.586 324.129C406.9 323.883 403.263 324.391 399.839 325.653ZM411.455 318.755C411.455 316.216 413.224 314.135 415.387 314.135H418.008H535.821H538.442C540.621 314.135 542.39 316.2 542.39 318.755C542.39 321.295 540.621 323.376 538.442 323.376H536.967H416.877H415.403C413.224 323.359 411.455 321.295 411.455 318.755ZM443.763 292.165H469.042H484.786H510.066C521.993 292.165 532.036 300.226 534.1 311.186H419.728C421.793 300.242 431.835 292.165 443.763 292.165ZM470.517 281.352C470.517 277.83 473.384 274.946 476.922 274.946C480.445 274.946 483.312 277.813 483.312 281.352V289.233H470.517V281.352ZM552.974 328.422C566.212 333.32 572.454 349.523 566.9 364.53C562.525 376.359 552.024 384.305 540.752 384.305C538.36 384.305 536.001 383.928 533.723 383.207C534.739 380.783 535.591 378.292 536.279 375.753C537.967 376.294 539.736 376.572 541.522 376.572C549.796 376.572 557.496 370.805 560.658 362.237C562.607 356.961 562.624 351.325 560.69 346.361C558.724 341.332 555.022 337.58 550.238 335.827C546.486 334.434 542.325 334.434 538.425 335.761V327.979C543.324 326.57 548.387 326.734 552.974 328.422ZM408.26 488.929C409.358 477.903 414.502 469.482 420.302 469.482H425.249H528.563H533.51C539.31 469.482 544.455 477.903 545.552 488.929H408.26ZM426.904 466.533C427.92 459.243 431.426 453.738 435.227 453.738H466.568H487.244H518.585C522.386 453.738 525.892 459.243 526.908 466.533H426.904ZM468.059 450.772V420.48C469.402 420.676 470.762 420.824 472.138 420.922C472.351 420.938 472.581 420.955 472.794 420.971C474.154 421.069 475.53 421.119 476.922 421.119C478.315 421.119 479.675 421.053 481.051 420.971C481.264 420.955 481.493 420.938 481.706 420.922C483.083 420.824 484.442 420.676 485.786 420.48V450.772H468.059ZM476.922 418.17C452.904 418.17 432.229 403.637 423.201 382.913C423.021 382.487 422.841 382.061 422.661 381.635C422.497 381.241 422.35 380.848 422.186 380.455C422.005 379.964 421.809 379.472 421.645 378.964C421.53 378.62 421.416 378.292 421.301 377.948C421.121 377.408 420.941 376.851 420.777 376.294C420.695 375.999 420.613 375.704 420.531 375.425C420.367 374.819 420.187 374.213 420.039 373.607C418.942 369.118 418.336 364.432 418.336 359.615V337.94V326.865V326.325H535.476V326.865V337.924V359.599C535.476 364.432 534.87 369.134 533.773 373.64C533.625 374.213 533.478 374.786 533.314 375.343C533.216 375.671 533.134 376.015 533.035 376.343C532.888 376.867 532.708 377.375 532.544 377.899C532.413 378.276 532.298 378.637 532.167 379.013C532.003 379.488 531.823 379.947 531.659 380.422C531.495 380.848 531.332 381.258 531.168 381.684C531.004 382.093 530.84 382.487 530.66 382.88C521.633 403.621 500.94 418.17 476.922 418.17ZM538.442 338.907C541.997 337.449 545.798 337.318 549.222 338.579C553.187 340.054 556.283 343.183 557.938 347.426C559.609 351.719 559.593 356.617 557.889 361.205C555.136 368.626 548.567 373.623 541.506 373.623C539.949 373.623 538.426 373.361 536.967 372.87C537.918 368.594 538.425 364.154 538.425 359.599V338.907H538.442ZM416.845 372.87C415.387 373.361 413.863 373.623 412.307 373.623C405.262 373.623 398.676 368.643 395.94 361.205C392.45 351.784 396.349 341.643 404.606 338.579C408.03 337.318 411.815 337.449 415.387 338.907V359.599C415.403 364.154 415.911 368.594 416.845 372.87ZM415.403 335.745C411.504 334.418 407.359 334.434 403.591 335.81C393.793 339.431 389.124 351.293 393.171 362.237C396.349 370.822 404.033 376.572 412.323 376.572C414.109 376.572 415.878 376.294 417.566 375.753C418.254 378.276 419.106 380.783 420.121 383.207C417.86 383.945 415.485 384.305 413.093 384.305C401.838 384.305 391.319 376.359 386.945 364.53C381.391 349.523 387.633 333.32 400.871 328.422C403.394 327.488 406.048 327.013 408.751 327.013C410.963 327.013 413.191 327.324 415.403 327.946V335.745V335.745Z" fill="#27213B"/>
<path d="M341.793 364.858C339.171 367.103 331.684 373.509 327.195 377.228C327.08 377.326 326.933 377.391 326.802 377.457C326.228 381.733 325.327 386.828 324.082 392.857C329.62 388.499 341.793 378.358 344.463 371.624C345.577 368.807 343.169 366.103 341.793 364.858Z" fill="#EF7E51"/>
<path d="M255.174 379.046C256.157 378.948 257.091 379.079 257.926 379.521C261.35 381.307 262.383 387.139 263.284 392.267C263.693 394.545 264.283 397.92 264.922 398.706C266.511 398.264 267.298 395.511 268.854 389.564C269.935 385.452 271.41 379.833 273.933 372.755C274.981 369.806 275.932 367.135 276.849 364.711C277.816 359.124 278.504 347.606 274.588 346.64C271.017 345.739 265.807 356.961 261.613 365.989C259.45 370.674 257.337 375.229 255.174 379.046Z" fill="#EF7E51"/>
<path d="M251.75 417.81C249.849 405.964 248.047 394.578 248.948 387.271C248.522 387.615 248.08 387.943 247.638 388.188C240.92 392.055 217.476 406.325 217.246 406.456C217.148 406.505 217.05 406.521 216.952 406.554C216.952 406.554 213.396 413.484 217.263 422.757C221.129 432.03 226.093 432.718 226.093 432.718C228.305 431.342 242.264 422.806 252.045 419.759C251.963 419.12 251.848 418.465 251.75 417.81Z" fill="#EF7E51"/>
<path d="M327.85 342.266C327.834 342.282 327.834 342.282 327.85 342.266C327.785 342.298 324.246 343.937 318.594 347.754C319.806 350.359 319.806 354.438 319.397 358.305C319.642 358.125 319.905 357.977 320.183 357.846C321.019 357.469 321.903 357.404 322.772 357.584C328.457 353.619 335.092 350.015 338.123 348.426C338.844 347.836 340.646 346.001 340.793 344.15C340.859 343.281 340.548 342.479 339.843 341.692C337.205 338.776 330.292 341.119 327.85 342.266Z" fill="#EF7E51"/>
<path d="M309.092 346.313C310.746 345.149 312.974 344.428 315.694 345.133C316.038 345.215 316.333 345.362 316.628 345.51C319.888 343.298 322.477 341.774 324.197 340.824C320.298 339.563 313.548 341.266 308.567 343.003C308.862 344.068 309.042 345.198 309.092 346.313Z" fill="#EF7E51"/>
<path d="M339.859 350.851C337.254 352.21 331.045 355.536 325.573 359.239C327.408 361.451 327.998 365.825 327.293 373.296C332.88 368.626 340.728 361.86 340.826 361.795C340.842 361.795 340.842 361.778 340.859 361.778L340.875 361.762C343.021 360.058 347.117 355.847 346.003 353.619C344.004 349.622 340.875 350.441 339.859 350.851Z" fill="#EF7E51"/>
<path d="M289.464 451.542C306.896 435.208 312.761 429.703 318.561 404.309C321.117 393.136 327.9 363.433 322.739 360.664C322.083 360.304 321.674 360.418 321.395 360.549C319.724 361.303 318.348 364.989 317.824 366.988C317.791 367.119 317.758 367.25 317.726 367.365C317.693 367.496 317.627 367.611 317.562 367.725C315.432 378.178 312.647 388.778 309.943 396.658C309.73 397.264 309.157 397.658 308.551 397.658C308.387 397.658 308.223 397.625 308.076 397.576C307.306 397.314 306.896 396.478 307.158 395.708C310.107 387.107 313.171 375.18 315.35 363.793C315.399 363.564 315.497 363.367 315.628 363.187C317.037 355.782 317.136 348.606 314.94 348.033C310.877 346.968 308.846 350.916 308.764 351.08C308.666 351.276 308.534 351.424 308.371 351.555C306.831 357.83 302.079 376.9 298.885 387.402C298.688 388.041 298.098 388.45 297.476 388.45C297.328 388.45 297.181 388.434 297.05 388.385C296.263 388.155 295.837 387.32 296.067 386.55C299.884 374 305.946 349.048 306.011 348.803C306.028 348.721 306.077 348.655 306.11 348.573C306.224 346.001 306.044 341.266 303.161 340.824C299.819 340.3 296.87 346.296 296.067 348.524C295.755 349.9 291.873 366.628 287.826 380.029C287.629 380.668 287.04 381.078 286.417 381.078C286.269 381.078 286.138 381.061 285.991 381.012C285.205 380.783 284.762 379.947 285.008 379.177C288.383 368.053 291.627 354.602 292.774 349.704C285.401 350.556 282.796 356.798 276.734 373.836C274.261 380.799 272.802 386.353 271.737 390.4C269.919 397.314 268.92 401.131 265.25 401.737C262.039 402.278 261.269 397.92 260.384 392.874C259.679 388.86 258.696 383.355 256.567 382.225C256.337 382.11 255.649 381.749 254.175 382.421C249.423 384.616 252.323 402.802 254.666 417.416C256.452 428.622 258.156 439.189 257.238 445.153C255.092 459.128 245.065 471.465 243.755 473.021C243.755 473.021 243.919 479.787 251.651 484.604C259.368 489.437 266.298 486.947 266.298 486.947C267.265 484.194 274.146 465.894 289.464 451.542Z" fill="#EF9860"/>
<path d="M298.983 348.065C298.983 348.065 298.328 343.248 300.212 342.757C302.145 342.249 304.684 343.298 305.012 344.805C305.323 346.23 303.587 348.983 302.964 349.294C302.342 349.605 299.376 349.491 298.983 348.065Z" fill="#EFD69D"/>
<path d="M309.943 355.684C309.943 355.684 309.321 351.129 311.107 350.67C312.942 350.195 315.334 351.178 315.645 352.604C315.94 353.964 314.301 356.568 313.712 356.847C313.138 357.126 310.337 357.027 309.943 355.684Z" fill="#EFD69D"/>
<path d="M319.397 367.004C319.397 367.004 318.856 363.056 320.396 362.646C321.985 362.22 324.066 363.089 324.328 364.317C324.574 365.497 323.148 367.758 322.657 368.004C322.165 368.266 319.724 368.184 319.397 367.004Z" fill="#EFD69D"/>
<path d="M286.007 356.978C286.007 356.978 285.86 353.112 287.466 352.686C289.12 352.243 290.857 352.915 291.135 354.193C291.398 355.405 289.923 357.764 289.399 358.027C288.874 358.289 286.351 358.207 286.007 356.978Z" fill="#EFD69D"/>
<path d="M253.83 383.453C253.83 383.453 256.272 383.781 256.468 385.518C256.583 386.484 255.944 388.549 255.436 389.188C255.223 389.466 253.765 390.089 252.995 389.63C252.225 389.171 252.798 384.731 253.83 383.453Z" fill="#EFD69D"/>
<path d="M288.711 350.85C288.711 350.85 291.987 349.884 292.38 351.522L294.019 348.622C294.019 348.622 292.577 348.147 292.282 348.147C291.987 348.147 290.07 349.016 289.776 349.212" fill="#27213B"/>
<path d="M291.627 449.511C291.922 449.233 292.2 448.97 292.479 448.708C292.774 448.43 293.052 448.168 293.347 447.889C293.544 447.709 293.74 447.529 293.921 447.348C294.215 447.07 294.494 446.791 294.789 446.529C294.953 446.365 295.133 446.202 295.297 446.054C295.608 445.759 295.903 445.464 296.214 445.186C296.345 445.055 296.476 444.924 296.607 444.809C296.919 444.514 297.214 444.219 297.508 443.924C297.623 443.81 297.754 443.679 297.869 443.564C298.164 443.269 298.459 442.974 298.754 442.696C298.868 442.581 298.967 442.483 299.081 442.368C299.376 442.073 299.655 441.778 299.933 441.5C300.032 441.401 300.13 441.303 300.228 441.188C300.507 440.893 300.785 440.615 301.064 440.32C301.162 440.222 301.244 440.123 301.342 440.025C301.621 439.73 301.883 439.452 302.145 439.157C302.227 439.058 302.325 438.977 302.407 438.878C302.669 438.583 302.931 438.305 303.194 438.01C303.275 437.928 303.341 437.83 303.423 437.748C303.685 437.453 303.931 437.158 304.193 436.863C304.258 436.781 304.324 436.699 304.406 436.617C304.652 436.322 304.914 436.011 305.159 435.716C305.225 435.634 305.274 435.569 305.34 435.503C305.585 435.192 305.831 434.881 306.077 434.586C306.126 434.52 306.192 434.438 306.241 434.373C306.487 434.062 306.716 433.734 306.962 433.423C307.011 433.357 307.044 433.308 307.093 433.242C307.338 432.915 307.568 432.571 307.814 432.243C307.846 432.194 307.879 432.161 307.912 432.112C308.158 431.768 308.387 431.407 308.633 431.047C308.649 431.014 308.666 430.998 308.682 430.965C308.928 430.588 309.173 430.211 309.403 429.818C312.876 424.133 315.415 417.432 317.873 407.488C311.189 423.74 298.967 437.338 286.45 447.545C271.77 459.521 275.26 457.588 267.527 468.778C262.514 476.052 253.585 471.596 248.047 467.254C245.999 470.367 244.295 472.448 243.804 473.021C243.804 473.021 243.968 479.787 251.701 484.604C259.417 489.437 266.347 486.947 266.347 486.947C267.314 484.244 274.195 465.944 289.513 451.592C290.054 451.084 290.578 450.609 291.086 450.117C291.234 449.872 291.43 449.691 291.627 449.511Z" fill="#EF7E51"/>
<path d="M317.807 346.312C317.807 346.312 323.853 346.05 322.952 358.157L325.655 356.617C325.655 356.617 329.522 356.634 330.029 363.564C330.537 370.641 328.227 375.147 328.227 375.147C328.227 375.147 330.57 375.966 329.636 380.553C327.965 388.794 324.869 394.84 324.869 394.84L322.804 395.102C322.804 395.102 326.278 377.211 326.147 376.572C326.015 375.933 328.457 359.976 321.248 358.813C321.248 358.813 318.545 358.682 317.644 361.909C317.676 361.893 318.84 350.179 317.807 346.312Z" fill="#BA6351"/>
<path d="M278.291 363.302C278.291 363.302 268.363 386.501 263.284 392.268C263.284 392.268 262.268 399.214 264.381 399.984C266.511 400.754 269.214 395.741 269.984 393.234C270.754 390.727 278.291 363.302 278.291 363.302Z" fill="#BA6351"/>
<path d="M251.75 417.809C251.537 416.515 251.34 415.221 251.127 413.943C251.111 413.812 251.094 413.681 251.062 413.566C250.865 412.288 250.669 411.01 250.472 409.749C250.456 409.65 250.439 409.536 250.423 409.421C250.243 408.16 250.062 406.931 249.899 405.702C249.882 405.604 249.866 405.506 249.866 405.407C249.702 404.195 249.554 402.999 249.407 401.819C249.391 401.721 249.391 401.639 249.374 401.541C249.243 400.378 249.128 399.231 249.03 398.117C249.03 398.035 249.014 397.953 249.014 397.887C248.916 396.773 248.85 395.676 248.784 394.627C248.784 394.561 248.784 394.512 248.768 394.447C248.719 393.382 248.703 392.366 248.703 391.383C248.703 391.35 248.703 391.318 248.703 391.285C248.703 390.285 248.752 389.335 248.817 388.434L248.375 387.664C248.358 387.68 248.342 387.68 248.326 387.697C248.227 389.122 247.015 407.226 243.312 415.204C241.019 420.119 228.453 426.247 221.097 429.261C222.964 431.424 224.635 432.243 225.487 432.538L226.077 432.702C228.289 431.326 242.247 422.79 252.028 419.743C251.963 419.12 251.848 418.465 251.75 417.809Z" fill="#BA6351"/>
<path d="M252.798 350.048L231.451 340.169C230.681 339.808 230.337 338.891 230.697 338.121C231.058 337.351 231.959 337.007 232.745 337.367C232.745 337.367 232.745 337.367 232.762 337.367L254.093 347.23C254.863 347.59 255.207 348.508 254.846 349.278C254.486 350.064 253.568 350.408 252.798 350.048Z" fill="white"/>
<path d="M259.958 344.953C259.958 344.953 259.958 344.936 259.958 344.953L248.44 330.175C248.014 329.634 248.227 328.782 248.899 328.242C249.571 327.717 250.439 327.717 250.865 328.258L262.366 343.019C262.776 343.56 262.579 344.412 261.907 344.936C261.252 345.477 260.367 345.477 259.958 344.953Z" fill="white"/>
<path d="M253.29 358.698L234.678 356.65C234.007 356.568 233.532 355.831 233.613 354.979C233.695 354.143 234.318 353.505 234.99 353.586C234.99 353.586 234.99 353.586 235.006 353.586L253.618 355.634C254.289 355.7 254.764 356.454 254.682 357.305C254.584 358.141 253.962 358.764 253.29 358.698Z" fill="white"/>
<path d="M274.801 334.451L274.506 310.941C274.49 310.089 275.178 309.384 276.03 309.384C276.882 309.368 277.57 310.056 277.586 310.891V310.908L277.881 334.401C277.898 335.253 277.21 335.958 276.358 335.958C275.522 335.974 274.818 335.303 274.801 334.451Z" fill="white"/>
<path d="M282.485 338.71C282.485 338.694 282.485 338.694 282.485 338.71L290.857 321.95C291.168 321.344 292.02 321.164 292.79 321.541C293.544 321.917 293.921 322.704 293.626 323.31C293.626 323.31 293.626 323.31 293.626 323.326L285.254 340.07C284.942 340.676 284.091 340.857 283.321 340.48C282.567 340.103 282.19 339.316 282.485 338.71Z" fill="white"/>
<path d="M267.199 338.628C267.199 338.612 267.199 338.612 267.199 338.628L261.023 320.934C260.793 320.295 261.269 319.542 262.071 319.263C262.874 318.984 263.693 319.263 263.923 319.902C263.923 319.902 263.923 319.902 263.923 319.918L270.083 337.596C270.312 338.235 269.837 338.989 269.034 339.267C268.264 339.546 267.429 339.251 267.199 338.628Z" fill="white"/>
<path d="M257.238 445.087C258.156 439.124 256.468 428.54 254.666 417.35C252.323 402.736 249.423 384.551 254.175 382.356C255.649 381.667 256.337 382.028 256.567 382.159C258.696 383.273 259.679 388.778 260.384 392.808C261.269 397.854 262.039 402.212 265.25 401.671C268.903 401.065 269.919 397.248 271.737 390.334C272.802 386.271 274.261 380.717 276.734 373.771C282.796 356.732 285.385 350.49 292.774 349.638C291.61 354.553 288.367 367.987 285.008 379.112C284.779 379.898 285.221 380.717 285.991 380.947C286.138 380.996 286.286 381.012 286.417 381.012C287.056 381.012 287.629 380.602 287.826 379.964C291.873 366.562 295.755 349.835 296.067 348.458C296.87 346.23 299.819 340.234 303.161 340.758C306.044 341.201 306.241 345.935 306.11 348.508C306.077 348.589 306.028 348.639 306.011 348.737C305.946 348.983 299.884 373.951 296.067 386.484C295.821 387.271 296.263 388.09 297.05 388.319C297.197 388.368 297.345 388.385 297.476 388.385C298.115 388.385 298.688 387.975 298.885 387.336C302.079 376.834 306.831 357.764 308.371 351.489C308.534 351.358 308.666 351.211 308.764 351.014C308.846 350.85 310.894 346.902 314.94 347.967C317.136 348.54 317.037 355.716 315.628 363.121C315.497 363.302 315.383 363.498 315.35 363.728C313.171 375.114 310.107 387.041 307.158 395.642C306.896 396.412 307.306 397.248 308.076 397.51C308.24 397.559 308.403 397.592 308.551 397.592C309.157 397.592 309.73 397.199 309.943 396.593C312.647 388.712 315.432 378.112 317.562 367.66C317.627 367.545 317.693 367.43 317.726 367.299C317.758 367.185 317.791 367.053 317.824 366.922C318.332 364.94 319.724 361.254 321.395 360.484C321.674 360.353 322.083 360.254 322.739 360.598C327.9 363.384 321.117 393.07 318.561 404.244C312.761 429.638 306.88 435.143 289.464 451.477C274.162 465.829 267.265 484.129 266.298 486.832C266.249 486.996 266.2 487.111 266.184 487.16C265.921 487.93 266.331 488.765 267.101 489.027C267.265 489.077 267.412 489.109 267.576 489.109C268.199 489.109 268.772 488.716 268.969 488.11C269.034 487.913 275.784 468.352 291.463 453.639C309.386 436.847 315.415 431.178 321.428 404.899C322.051 402.196 322.608 399.656 323.132 397.232L323.148 397.215C324.639 396.101 343.497 381.962 347.199 372.624C348.887 368.364 345.938 364.662 344.037 362.843C346.38 360.697 350.558 356.093 348.625 352.227C347.035 349.048 344.742 347.819 342.628 347.557C343.185 346.623 343.628 345.526 343.726 344.33C343.857 342.642 343.267 341.02 342.022 339.644C338.106 335.352 330.144 338.071 327.474 339.153C322.641 335.597 313.171 338.121 307.355 340.218C306.503 338.956 305.307 338.039 303.603 337.776C298.213 336.941 294.74 343.887 293.626 346.525C287.351 346.82 283.779 349.867 280.601 355.929C280.617 350.539 279.585 344.789 275.309 343.707C269.346 342.216 264.529 352.62 258.942 364.678C254.928 373.345 250.357 383.158 246.163 385.583C239.413 389.466 215.936 403.752 215.706 403.9C215.018 404.326 214.789 405.227 215.215 405.931C215.592 406.537 216.313 406.75 216.952 406.521C217.05 406.488 217.148 406.472 217.246 406.423C217.476 406.275 240.92 392.005 247.638 388.155C248.08 387.909 248.506 387.582 248.948 387.238C248.047 394.561 249.849 405.931 251.75 417.776C251.848 418.432 251.963 419.087 252.061 419.742C242.28 422.79 228.338 431.325 226.11 432.702C225.962 432.783 225.864 432.849 225.831 432.882C225.143 433.308 224.93 434.225 225.373 434.913C225.651 435.356 226.126 435.601 226.618 435.601C226.88 435.601 227.158 435.536 227.404 435.372C227.568 435.274 242.51 425.935 252.536 422.675C253.912 431.506 255.043 439.943 254.322 444.596C252.192 458.391 241.477 471.055 241.379 471.17C240.855 471.792 240.92 472.726 241.543 473.25C242.166 473.775 243.099 473.709 243.624 473.086C243.64 473.054 243.706 472.988 243.771 472.906C245.065 471.399 255.076 459.079 257.238 445.087ZM274.605 346.64C278.52 347.623 277.832 359.124 276.865 364.711C275.948 367.135 274.998 369.806 273.949 372.755C271.426 379.832 269.952 385.452 268.87 389.564C267.314 395.511 266.511 398.264 264.938 398.706C264.299 397.92 263.693 394.545 263.3 392.267C262.399 387.139 261.367 381.307 257.943 379.521C257.091 379.079 256.173 378.948 255.19 379.046C257.353 375.229 259.466 370.674 261.645 365.972C265.823 356.961 271.033 345.739 274.605 346.64ZM340.81 344.15C340.662 346.001 338.86 347.836 338.139 348.426C335.092 350.015 328.457 353.619 322.788 357.584C321.903 357.404 321.019 357.469 320.199 357.846C319.921 357.977 319.659 358.125 319.413 358.305C319.839 354.438 319.839 350.359 318.61 347.754C324.279 343.953 327.818 342.298 327.867 342.282C327.867 342.282 327.867 342.282 327.883 342.282C330.324 341.135 337.238 338.792 339.892 341.692C340.564 342.462 340.875 343.265 340.81 344.15ZM340.859 361.762L340.842 361.778C340.826 361.778 340.826 361.794 340.81 361.794C340.711 361.876 332.864 368.626 327.277 373.296C327.981 365.825 327.392 361.45 325.557 359.239C331.045 355.536 337.238 352.21 339.843 350.85C340.859 350.457 343.988 349.638 345.97 353.619C347.101 355.847 343.021 360.058 340.859 361.762ZM344.463 371.608C341.793 378.342 329.603 388.483 324.082 392.841C325.311 386.812 326.228 381.717 326.802 377.441C326.949 377.391 327.08 377.309 327.195 377.211C331.684 373.509 339.171 367.086 341.793 364.842C343.169 366.103 345.577 368.807 344.463 371.608ZM324.197 340.84C322.477 341.79 319.872 343.314 316.628 345.526C316.349 345.362 316.038 345.231 315.694 345.149C312.974 344.444 310.746 345.165 309.092 346.329C309.026 345.214 308.862 344.1 308.567 343.036C313.548 341.282 320.298 339.579 324.197 340.84Z" fill="#27213B"/>
<path d="M642.017 351.834C642.05 351.735 642.083 351.653 642.116 351.555C638.266 350.31 631.27 348.721 625.929 349.556C631.892 349.212 639.199 351.047 642.017 351.834Z" fill="#A95C43"/>
<path d="M705.585 390.596C700.113 388.303 694.46 379.275 688.481 369.724C683.041 361.041 676.275 350.244 672.703 351.62C669.591 352.816 670.344 360.467 671.638 366.365C673.441 370.363 675.177 375.376 677.307 381.536C679.83 388.843 681.288 394.643 682.353 398.87C683.926 405.063 684.712 407.914 686.367 408.356C687.055 407.602 687.711 404.08 688.153 401.721C689.136 396.462 690.25 390.498 693.772 388.696C695.263 387.926 696.984 387.991 698.868 388.892C705.159 391.874 703.291 406.537 700.539 423.052C701.145 423.052 701.735 423.068 702.275 423.117C712.433 424.002 730.586 432.21 733.223 433.422C733.223 433.422 739.711 431.047 741.513 421.266C743.316 411.485 739.236 405.472 739.236 405.472C739.138 405.456 739.04 405.456 738.941 405.407C738.695 405.243 712.941 393.676 705.585 390.596Z" fill="#A95C43"/>
<path d="M606.662 364.268C605.696 364.039 602.239 363.515 600.699 367.905C599.83 370.347 604.565 374.148 606.99 375.622L607.006 375.638C607.023 375.638 607.023 375.638 607.039 375.655C607.137 375.72 617 382.257 623.291 386.288C622.62 379.439 622.882 374.819 624.078 371.936C617.623 368.463 609.775 365.415 606.662 364.268Z" fill="#A95C43"/>
<path d="M625.913 349.556C623.799 349.884 621.981 350.604 620.686 351.85C623.013 352.734 627.305 354.553 633.007 357.682C633.711 356.453 634.71 355.552 636.07 355.208C638.446 354.618 640.182 354.733 641.444 355.126C641.477 354.094 641.641 352.947 642.001 351.833C639.199 351.047 631.892 349.212 625.913 349.556Z" fill="#A95C43"/>
<path d="M626.093 403.949C625.028 398.509 624.241 393.824 623.717 389.777C623.455 389.777 623.209 389.695 622.98 389.548C617.901 386.32 609.398 380.717 606.466 378.768C605.22 380.226 603.074 383.339 604.565 386.075C607.809 392.005 619.31 399.755 626.093 403.949Z" fill="#A95C43"/>
<path d="M617.836 353.98C617.836 353.98 617.836 353.963 617.836 353.98C617.836 353.963 617.836 353.963 617.836 353.98C615.165 353.111 607.776 351.621 605.45 354.93C604.811 355.831 604.598 356.699 604.778 357.6C605.237 359.812 607.891 361.532 608.071 361.647C611.512 362.925 619.245 365.956 625.732 369.462C626.093 369.134 626.47 368.856 626.879 368.643C628.911 367.578 630.451 367.922 631.401 368.397C631.434 368.413 631.466 368.43 631.499 368.446C631.335 365.825 631.385 362.925 631.958 360.5C623.373 355.749 617.901 353.996 617.836 353.98Z" fill="#A95C43"/>
<path d="M696.787 427.59C699.343 412.566 702.521 393.857 697.622 391.547C696.099 390.826 695.378 391.203 695.132 391.317C692.904 392.448 691.855 398.116 691.085 402.261C690.119 407.422 689.283 411.878 686.039 411.305C682.304 410.65 681.37 406.947 679.519 399.607C678.454 395.429 677.012 389.695 674.538 382.503C668.46 364.875 665.839 358.419 658.204 357.486C659.466 362.777 663.135 377.85 666.527 389.466C666.756 390.252 666.314 391.071 665.527 391.301C665.396 391.334 665.249 391.366 665.118 391.366C664.479 391.366 663.889 390.94 663.693 390.301C659.695 376.605 655.337 358.206 654.895 356.388C654.469 355.536 651.405 349.671 647.473 350.261C646.572 350.392 645.9 350.785 645.409 351.473C644.524 352.702 644.344 354.651 644.393 356.142C644.458 356.273 644.54 356.404 644.557 356.552C644.606 356.814 649.799 383.568 653.584 396.478C653.813 397.264 653.371 398.084 652.585 398.313C652.437 398.346 652.306 398.378 652.175 398.378C651.536 398.378 650.946 397.969 650.766 397.314C647.555 386.386 643.394 365.825 642.083 359.222C641.935 359.091 641.821 358.927 641.739 358.731C641.722 358.714 640.821 357.092 636.791 358.092C634.186 358.747 634.055 365.89 634.809 371.887C637.496 386.681 642.23 401.475 643.623 405.653C643.885 406.423 643.459 407.258 642.689 407.52C642.542 407.569 642.378 407.602 642.23 407.602C641.608 407.602 641.034 407.209 640.821 406.586C639.527 402.687 635.366 389.695 632.597 375.95C632.499 375.786 632.417 375.622 632.384 375.425C632.368 375.36 632.351 375.278 632.335 375.18C632.122 374.115 631.385 371.657 630.107 371.018C629.926 370.936 629.386 370.658 628.272 371.248C623.177 373.918 627.109 395.249 631.106 413.533C636.824 439.746 642.82 445.464 660.58 462.454C676.193 477.379 683.107 496.285 684.041 499.054C684.041 499.054 689.529 502.839 699.31 498.219C709.091 493.582 707.452 484.915 707.452 484.915C706.142 483.326 695.951 470.531 693.871 456.113C692.986 449.953 694.837 439.091 696.787 427.59Z" fill="#BD6845"/>
<path d="M672.753 368.938C674.194 372.46 675.636 376.638 677.323 381.536C679.846 388.843 681.305 394.643 682.37 398.87C683.942 405.063 684.729 407.913 686.383 408.356C687.072 407.602 687.727 404.08 688.169 401.721C688.251 401.327 688.317 400.918 688.399 400.508C682.255 383.224 676.291 373.64 672.753 368.938Z" fill="#844343"/>
<path d="M629.419 380.16C629.419 380.16 627.551 381.061 626.912 377.719C626.437 375.294 626.715 373.672 628.272 373.41C629.812 373.148 631.303 373.541 631.679 375.605C632.056 377.653 632.957 379.21 629.419 380.16Z" fill="#E8AE7A"/>
<path d="M638.626 366.529C638.626 366.529 636.758 367.431 636.119 364.088C635.644 361.664 635.923 360.042 637.463 359.779C639.003 359.517 640.494 359.911 640.871 361.975C641.264 364.006 642.165 365.563 638.626 366.529Z" fill="#E8AE7A"/>
<path d="M649.373 359.501C649.373 359.501 647.293 360.418 646.572 357.011C646.048 354.537 646.359 352.882 648.079 352.62C649.799 352.358 651.454 352.751 651.88 354.848C652.322 356.945 653.322 358.518 649.373 359.501Z" fill="#E8AE7A"/>
<path d="M662.693 367.086C662.693 367.086 660.662 367.987 659.957 364.645C659.449 362.221 659.744 360.599 661.432 360.353C663.119 360.091 664.741 360.484 665.151 362.532C665.577 364.58 666.56 366.12 662.693 367.086Z" fill="#E8AE7A"/>
<path d="M696.213 431.047C696.213 431.047 686.957 445.956 691.593 466.55C695.329 483.179 698.065 491.42 683.795 498.317C683.91 498.628 683.991 498.874 684.057 499.054C684.057 499.054 689.545 502.839 699.326 498.219C709.107 493.582 707.469 484.916 707.469 484.916C706.158 483.326 695.968 470.531 693.887 456.114C693.084 450.576 694.493 441.238 696.213 431.047Z" fill="#844343"/>
<path d="M705.945 416.76C705.29 410.568 704.127 405.21 703.094 401.36C703.013 407.389 701.899 414.975 700.555 423.019C701.161 423.019 701.751 423.035 702.292 423.084C703.275 423.166 704.372 423.347 705.486 423.56C715.857 425.526 730.864 432.292 733.24 433.39C733.24 433.39 737.844 431.669 740.367 425.263C726.85 423.527 711.352 418.579 705.945 416.76Z" fill="#844343"/>
<path d="M695.738 356.159C695.738 356.159 695.755 356.159 695.738 356.159L717.086 346.279C717.856 345.919 718.2 345.001 717.839 344.231C717.479 343.461 716.578 343.117 715.808 343.478C715.808 343.478 715.808 343.478 715.792 343.478L694.46 353.341C693.69 353.701 693.346 354.618 693.707 355.389C694.051 356.175 694.968 356.503 695.738 356.159Z" fill="white"/>
<path d="M688.595 351.064C688.595 351.064 688.595 351.047 688.595 351.064L700.113 336.286C700.539 335.745 700.326 334.893 699.654 334.353C698.982 333.828 698.114 333.828 697.688 334.369L686.187 349.13C685.777 349.671 685.974 350.523 686.646 351.047C687.285 351.588 688.169 351.588 688.595 351.064Z" fill="white"/>
<path d="M695.247 364.809C695.263 364.809 695.263 364.809 695.247 364.809L713.875 362.761C714.546 362.679 715.022 361.942 714.94 361.09C714.858 360.254 714.235 359.615 713.563 359.697C713.563 359.697 713.563 359.697 713.547 359.697L694.936 361.745C694.264 361.811 693.789 362.564 693.871 363.416C693.969 364.252 694.575 364.874 695.247 364.809Z" fill="white"/>
<path d="M673.736 340.562L674.03 317.052C674.047 316.2 673.359 315.495 672.507 315.495C671.655 315.479 670.967 316.167 670.95 317.002V317.019L670.655 340.513C670.639 341.364 671.327 342.069 672.179 342.069C673.031 342.085 673.719 341.414 673.736 340.562Z" fill="white"/>
<path d="M666.052 344.821C666.052 344.821 666.052 344.805 666.052 344.821L657.68 328.061C657.369 327.455 656.517 327.275 655.747 327.652C654.993 328.028 654.616 328.815 654.911 329.421C654.911 329.421 654.911 329.421 654.911 329.437L663.283 346.181C663.594 346.787 664.446 346.968 665.216 346.591C665.97 346.214 666.347 345.428 666.052 344.821Z" fill="white"/>
<path d="M681.337 344.739C681.337 344.723 681.337 344.723 681.337 344.739L687.514 327.045C687.743 326.406 687.268 325.653 686.465 325.374C685.663 325.096 684.843 325.374 684.614 326.013C684.614 326.013 684.614 326.013 684.614 326.029L678.454 343.707C678.225 344.346 678.7 345.1 679.502 345.378C680.289 345.657 681.108 345.362 681.337 344.739Z" fill="white"/>
<path d="M740.154 402.671C739.891 402.556 714.104 390.973 706.715 387.877C702.111 385.943 696.197 376.49 690.971 368.168C683.729 356.601 677.487 346.607 671.622 348.868C668.083 350.244 667.346 354.815 667.625 359.517C665.003 356.322 661.825 354.651 657.205 354.422C656.025 352.21 652.437 346.525 647.031 347.312C645.687 347.508 644.54 348.082 643.656 348.983C641.854 348.36 623.734 342.397 617.606 350.85C614.592 350.064 606.384 348.458 603.009 353.226C601.895 354.799 601.501 356.486 601.862 358.206C602.124 359.435 602.73 360.5 603.435 361.401C601.305 361.942 599.109 363.466 597.881 366.939C596.406 371.133 601.288 375.294 603.943 377.178C602.239 379.259 599.666 383.42 601.944 387.549C605.974 394.889 620.588 404.178 626.863 407.93C627.272 409.929 627.715 411.993 628.19 414.172C634.104 441.254 640.248 447.135 658.515 464.584C674.489 479.853 681.255 500.086 681.321 500.283C681.534 500.905 682.107 501.299 682.73 501.299C682.877 501.299 683.041 501.282 683.189 501.233C683.959 500.971 684.385 500.152 684.139 499.365C684.123 499.316 684.09 499.202 684.024 499.038C683.074 496.285 676.177 477.379 660.563 462.437C642.787 445.448 636.807 439.73 631.09 413.517C627.092 395.233 623.177 373.902 628.255 371.231C629.369 370.658 629.91 370.92 630.09 371.002C631.368 371.641 632.105 374.082 632.318 375.163C632.335 375.245 632.351 375.327 632.368 375.409C632.4 375.606 632.482 375.786 632.581 375.933C635.366 389.679 639.511 402.671 640.805 406.57C641.018 407.193 641.591 407.586 642.214 407.586C642.361 407.586 642.525 407.57 642.673 407.504C643.443 407.242 643.869 406.406 643.607 405.636C642.214 401.459 637.479 386.664 634.792 371.87C634.039 365.858 634.17 358.731 636.775 358.075C640.805 357.06 641.706 358.682 641.722 358.714C641.804 358.911 641.919 359.058 642.067 359.206C643.377 365.808 647.539 386.386 650.75 397.297C650.946 397.936 651.52 398.362 652.159 398.362C652.29 398.362 652.437 398.346 652.568 398.297C653.355 398.067 653.797 397.248 653.568 396.462C649.767 383.535 644.59 356.798 644.54 356.535C644.508 356.388 644.442 356.257 644.377 356.126C644.327 354.619 644.508 352.685 645.392 351.457C645.884 350.768 646.556 350.375 647.457 350.244C651.389 349.654 654.452 355.52 654.878 356.372C655.304 358.19 659.679 376.605 663.676 390.285C663.873 390.924 664.446 391.35 665.102 391.35C665.233 391.35 665.38 391.334 665.511 391.284C666.297 391.055 666.74 390.236 666.51 389.45C663.119 377.834 659.449 362.761 658.188 357.469C665.822 358.403 668.444 364.858 674.522 382.487C676.996 389.679 678.438 395.397 679.502 399.591C681.354 406.947 682.288 410.633 686.023 411.289C689.283 411.862 690.102 407.406 691.069 402.245C691.839 398.1 692.904 392.448 695.116 391.301C695.362 391.186 696.082 390.809 697.606 391.53C702.505 393.857 699.326 412.55 696.771 427.574C694.821 439.075 692.97 449.937 693.854 456.081C695.935 470.498 706.125 483.277 707.436 484.882C707.502 484.948 707.567 485.03 707.583 485.063C708.108 485.685 709.042 485.767 709.664 485.243C710.287 484.719 710.369 483.785 709.844 483.162C709.73 483.031 698.835 469.924 696.787 455.671C695.968 449.986 697.868 438.845 699.687 428.081C699.801 427.377 699.916 426.689 700.047 425.984C700.768 425.968 701.44 425.968 702.03 426.017C712.236 426.902 732.093 436.093 732.29 436.191C732.486 436.289 732.699 436.322 732.912 436.322C733.469 436.322 733.993 436.011 734.256 435.47C734.6 434.733 734.272 433.848 733.535 433.504C733.486 433.488 733.387 433.439 733.223 433.357C730.586 432.145 712.417 423.936 702.275 423.052C701.735 423.003 701.145 422.986 700.539 422.986C703.291 406.472 705.159 391.809 698.868 388.827C696.984 387.942 695.263 387.877 693.772 388.63C690.25 390.433 689.136 396.396 688.153 401.655C687.711 404.014 687.055 407.537 686.367 408.29C684.696 407.848 683.91 404.997 682.353 398.804C681.288 394.577 679.814 388.778 677.307 381.471C675.177 375.311 673.441 370.297 671.638 366.3C670.344 360.402 669.591 352.767 672.703 351.555C676.275 350.179 683.041 360.975 688.481 369.658C694.46 379.21 700.113 388.237 705.585 390.531C712.941 393.611 738.695 405.178 738.958 405.292C739.056 405.341 739.154 405.341 739.253 405.358C739.924 405.505 740.612 405.194 740.907 404.555C741.235 403.883 740.907 402.999 740.154 402.671ZM642.099 351.571C642.067 351.67 642.034 351.751 642.001 351.85C641.641 352.964 641.477 354.111 641.444 355.143C640.182 354.75 638.446 354.635 636.07 355.225C634.694 355.569 633.711 356.47 633.007 357.699C627.305 354.569 623.013 352.767 620.686 351.866C621.981 350.621 623.799 349.9 625.913 349.572C631.254 348.737 638.266 350.326 642.099 351.571ZM631.516 368.43C631.483 368.413 631.45 368.397 631.417 368.381C630.467 367.905 628.911 367.561 626.896 368.626C626.47 368.839 626.093 369.134 625.749 369.445C619.261 365.939 611.544 362.909 608.087 361.631C607.907 361.516 605.253 359.796 604.794 357.584C604.614 356.683 604.827 355.815 605.466 354.913C607.809 351.588 615.198 353.095 617.836 353.963C617.901 353.98 623.373 355.733 631.958 360.467C631.401 362.909 631.352 365.792 631.516 368.43ZM606.466 378.8C609.398 380.734 617.901 386.353 622.98 389.581C623.209 389.728 623.471 389.794 623.717 389.81C624.241 393.857 625.028 398.542 626.093 403.982C619.31 399.771 607.809 392.038 604.565 386.124C603.058 383.371 605.22 380.258 606.466 378.8ZM623.308 386.288C617 382.241 607.154 375.72 607.055 375.655C607.039 375.655 607.039 375.655 607.023 375.638L607.006 375.622C604.581 374.164 599.847 370.363 600.715 367.905C602.255 363.515 605.712 364.039 606.678 364.268C609.791 365.432 617.639 368.462 624.11 371.936C622.898 374.819 622.636 379.439 623.308 386.288Z" fill="#27213B"/>
<path d="M480.919 558.89V565H455.445V532.1H480.308V538.21H463.012V545.354H478.287V551.276H463.012V558.89H480.919ZM502.213 565L496.667 557.245L490.933 565H482.943L492.672 552.263L483.272 539.714H491.497L496.855 547.093L502.354 539.714H510.156L500.756 552.075L510.532 565H502.213ZM525.531 565.376C522.837 565.376 520.408 564.828 518.246 563.731C516.116 562.603 514.439 561.052 513.217 559.078C512.027 557.104 511.431 554.864 511.431 552.357C511.431 549.85 512.027 547.61 513.217 545.636C514.439 543.662 516.116 542.127 518.246 541.03C520.408 539.902 522.837 539.338 525.531 539.338C528.195 539.338 530.513 539.902 532.487 541.03C534.493 542.127 535.95 543.709 536.858 545.777L531.171 548.832C529.855 546.513 527.96 545.354 525.484 545.354C523.573 545.354 521.991 545.981 520.737 547.234C519.484 548.487 518.857 550.195 518.857 552.357C518.857 554.519 519.484 556.227 520.737 557.48C521.991 558.733 523.573 559.36 525.484 559.36C527.991 559.36 529.887 558.201 531.171 555.882L536.858 558.984C535.95 560.989 534.493 562.556 532.487 563.684C530.513 564.812 528.195 565.376 525.531 565.376ZM565.528 552.451C565.528 552.545 565.481 553.203 565.387 554.425H546.258C546.602 555.992 547.417 557.229 548.702 558.138C549.986 559.047 551.584 559.501 553.496 559.501C554.812 559.501 555.971 559.313 556.974 558.937C558.008 558.53 558.963 557.903 559.841 557.057L563.742 561.287C561.36 564.013 557.882 565.376 553.308 565.376C550.456 565.376 547.934 564.828 545.741 563.731C543.547 562.603 541.855 561.052 540.665 559.078C539.474 557.104 538.879 554.864 538.879 552.357C538.879 549.882 539.458 547.657 540.618 545.683C541.808 543.678 543.422 542.127 545.459 541.03C547.527 539.902 549.83 539.338 552.368 539.338C554.843 539.338 557.083 539.871 559.089 540.936C561.094 542.001 562.661 543.537 563.789 545.542C564.948 547.516 565.528 549.819 565.528 552.451ZM552.415 544.884C550.754 544.884 549.36 545.354 548.232 546.294C547.104 547.234 546.414 548.519 546.164 550.148H558.619C558.368 548.55 557.679 547.281 556.551 546.341C555.423 545.37 554.044 544.884 552.415 544.884ZM570.409 530.126H577.741V565H570.409V530.126ZM584.546 530.126H591.878V565H584.546V530.126ZM623.451 552.451C623.451 552.545 623.404 553.203 623.31 554.425H604.181C604.526 555.992 605.341 557.229 606.625 558.138C607.91 559.047 609.508 559.501 611.419 559.501C612.735 559.501 613.895 559.313 614.897 558.937C615.931 558.53 616.887 557.903 617.764 557.057L621.665 561.287C619.284 564.013 615.806 565.376 611.231 565.376C608.38 565.376 605.858 564.828 603.664 563.731C601.471 562.603 599.779 561.052 598.588 559.078C597.398 557.104 596.802 554.864 596.802 552.357C596.802 549.882 597.382 547.657 598.541 545.683C599.732 543.678 601.346 542.127 603.382 541.03C605.45 539.902 607.753 539.338 610.291 539.338C612.767 539.338 615.007 539.871 617.012 540.936C619.018 542.001 620.584 543.537 621.712 545.542C622.872 547.516 623.451 549.819 623.451 552.451ZM610.338 544.884C608.678 544.884 607.283 545.354 606.155 546.294C605.027 547.234 604.338 548.519 604.087 550.148H616.542C616.292 548.55 615.602 547.281 614.474 546.341C613.346 545.37 611.968 544.884 610.338 544.884ZM643.702 539.338C646.835 539.338 649.357 540.278 651.269 542.158C653.211 544.038 654.183 546.827 654.183 550.524V565H646.851V551.652C646.851 549.647 646.412 548.158 645.535 547.187C644.657 546.184 643.388 545.683 641.728 545.683C639.879 545.683 638.406 546.263 637.31 547.422C636.213 548.55 635.665 550.242 635.665 552.498V565H628.333V539.714H635.336V542.675C636.307 541.61 637.513 540.795 638.955 540.231C640.396 539.636 641.978 539.338 643.702 539.338ZM677.138 563.778C676.417 564.311 675.524 564.718 674.459 565C673.425 565.251 672.328 565.376 671.169 565.376C668.161 565.376 665.826 564.608 664.166 563.073C662.536 561.538 661.722 559.282 661.722 556.305V545.918H657.821V540.278H661.722V534.121H669.054V540.278H675.352V545.918H669.054V556.211C669.054 557.276 669.32 558.107 669.853 558.702C670.417 559.266 671.2 559.548 672.203 559.548C673.362 559.548 674.349 559.235 675.164 558.608L677.138 563.778ZM680.314 532.1H689.056L687.599 553.579H681.771L680.314 532.1ZM684.685 565.376C683.4 565.376 682.319 564.969 681.442 564.154C680.596 563.308 680.173 562.29 680.173 561.099C680.173 559.908 680.596 558.921 681.442 558.138C682.288 557.323 683.369 556.916 684.685 556.916C686.001 556.916 687.082 557.323 687.928 558.138C688.774 558.921 689.197 559.908 689.197 561.099C689.197 562.29 688.758 563.308 687.881 564.154C687.035 564.969 685.969 565.376 684.685 565.376Z" fill="white"/>
<path d="M513.468 580.93L508.585 592.007C508.154 593.033 507.647 593.755 507.065 594.173C506.495 594.591 505.804 594.8 504.994 594.8C504.5 594.8 504.018 594.718 503.55 594.553C503.094 594.401 502.714 594.173 502.41 593.869L503.189 592.501C503.708 592.995 504.31 593.242 504.994 593.242C505.437 593.242 505.804 593.122 506.096 592.881C506.4 592.653 506.672 592.254 506.913 591.684L507.236 590.981L502.79 580.93H504.69L508.205 588.986L511.682 580.93H513.468ZM519.205 591.114C518.204 591.114 517.305 590.892 516.507 590.449C515.709 590.006 515.082 589.398 514.626 588.625C514.182 587.84 513.961 586.953 513.961 585.965C513.961 584.977 514.182 584.097 514.626 583.324C515.082 582.539 515.709 581.931 516.507 581.5C517.305 581.057 518.204 580.835 519.205 580.835C520.205 580.835 521.098 581.057 521.884 581.5C522.682 581.931 523.302 582.539 523.746 583.324C524.202 584.097 524.43 584.977 524.43 585.965C524.43 586.953 524.202 587.84 523.746 588.625C523.302 589.398 522.682 590.006 521.884 590.449C521.098 590.892 520.205 591.114 519.205 591.114ZM519.205 589.518C519.851 589.518 520.427 589.372 520.934 589.081C521.453 588.777 521.858 588.359 522.15 587.827C522.441 587.282 522.587 586.662 522.587 585.965C522.587 585.268 522.441 584.654 522.15 584.122C521.858 583.577 521.453 583.159 520.934 582.868C520.427 582.577 519.851 582.431 519.205 582.431C518.559 582.431 517.976 582.577 517.457 582.868C516.95 583.159 516.545 583.577 516.241 584.122C515.949 584.654 515.804 585.268 515.804 585.965C515.804 586.662 515.949 587.282 516.241 587.827C516.545 588.359 516.95 588.777 517.457 589.081C517.976 589.372 518.559 589.518 519.205 589.518ZM536.338 580.93V591H534.609V589.48C534.242 589.999 533.754 590.405 533.146 590.696C532.551 590.975 531.898 591.114 531.189 591.114C529.846 591.114 528.789 590.747 528.016 590.012C527.243 589.265 526.857 588.169 526.857 586.725V580.93H528.681V586.516C528.681 587.491 528.915 588.232 529.384 588.739C529.853 589.233 530.524 589.48 531.398 589.48C532.361 589.48 533.121 589.189 533.678 588.606C534.235 588.023 534.514 587.2 534.514 586.136V580.93H536.338ZM554.413 576.902V591H552.665V589.404C552.26 589.961 551.747 590.386 551.126 590.677C550.505 590.968 549.821 591.114 549.074 591.114C548.099 591.114 547.225 590.899 546.452 590.468C545.679 590.037 545.071 589.436 544.628 588.663C544.197 587.878 543.982 586.978 543.982 585.965C543.982 584.952 544.197 584.059 544.628 583.286C545.071 582.513 545.679 581.912 546.452 581.481C547.225 581.05 548.099 580.835 549.074 580.835C549.796 580.835 550.461 580.974 551.069 581.253C551.677 581.519 552.184 581.918 552.589 582.45V576.902H554.413ZM549.226 589.518C549.859 589.518 550.436 589.372 550.955 589.081C551.474 588.777 551.88 588.359 552.171 587.827C552.462 587.282 552.608 586.662 552.608 585.965C552.608 585.268 552.462 584.654 552.171 584.122C551.88 583.577 551.474 583.159 550.955 582.868C550.436 582.577 549.859 582.431 549.226 582.431C548.58 582.431 547.997 582.577 547.478 582.868C546.971 583.159 546.566 583.577 546.262 584.122C545.971 584.654 545.825 585.268 545.825 585.965C545.825 586.662 545.971 587.282 546.262 587.827C546.566 588.359 546.971 588.777 547.478 589.081C547.997 589.372 548.58 589.518 549.226 589.518ZM557.864 580.93H559.688V591H557.864V580.93ZM558.776 578.992C558.422 578.992 558.124 578.878 557.883 578.65C557.655 578.422 557.541 578.143 557.541 577.814C557.541 577.485 557.655 577.206 557.883 576.978C558.124 576.737 558.422 576.617 558.776 576.617C559.131 576.617 559.422 576.731 559.65 576.959C559.891 577.174 560.011 577.447 560.011 577.776C560.011 578.118 559.891 578.409 559.65 578.65C559.422 578.878 559.131 578.992 558.776 578.992ZM572.671 576.902V591H570.923V589.404C570.518 589.961 570.005 590.386 569.384 590.677C568.763 590.968 568.079 591.114 567.332 591.114C566.357 591.114 565.483 590.899 564.71 590.468C563.937 590.037 563.329 589.436 562.886 588.663C562.455 587.878 562.24 586.978 562.24 585.965C562.24 584.952 562.455 584.059 562.886 583.286C563.329 582.513 563.937 581.912 564.71 581.481C565.483 581.05 566.357 580.835 567.332 580.835C568.054 580.835 568.719 580.974 569.327 581.253C569.935 581.519 570.442 581.918 570.847 582.45V576.902H572.671ZM567.484 589.518C568.117 589.518 568.694 589.372 569.213 589.081C569.732 588.777 570.138 588.359 570.429 587.827C570.72 587.282 570.866 586.662 570.866 585.965C570.866 585.268 570.72 584.654 570.429 584.122C570.138 583.577 569.732 583.159 569.213 582.868C568.694 582.577 568.117 582.431 567.484 582.431C566.838 582.431 566.255 582.577 565.736 582.868C565.229 583.159 564.824 583.577 564.52 584.122C564.229 584.654 564.083 585.268 564.083 585.965C564.083 586.662 564.229 587.282 564.52 587.827C564.824 588.359 565.229 588.777 565.736 589.081C566.255 589.372 566.838 589.518 567.484 589.518ZM590.326 586.022C590.326 586.161 590.313 586.345 590.288 586.573H582.118C582.232 587.46 582.618 588.175 583.277 588.72C583.948 589.252 584.778 589.518 585.766 589.518C586.969 589.518 587.938 589.113 588.673 588.302L589.68 589.48C589.224 590.012 588.654 590.417 587.97 590.696C587.298 590.975 586.545 591.114 585.709 591.114C584.645 591.114 583.701 590.899 582.878 590.468C582.054 590.025 581.415 589.41 580.959 588.625C580.515 587.84 580.294 586.953 580.294 585.965C580.294 584.99 580.509 584.109 580.94 583.324C581.383 582.539 581.985 581.931 582.745 581.5C583.517 581.057 584.385 580.835 585.348 580.835C586.31 580.835 587.165 581.057 587.913 581.5C588.673 581.931 589.262 582.539 589.68 583.324C590.11 584.109 590.326 585.009 590.326 586.022ZM585.348 582.374C584.474 582.374 583.739 582.64 583.144 583.172C582.561 583.704 582.219 584.401 582.118 585.262H588.578C588.476 584.413 588.128 583.723 587.533 583.191C586.95 582.646 586.222 582.374 585.348 582.374ZM601.584 580.93L597.176 591H595.314L590.906 580.93H592.806L596.264 589.005L599.798 580.93H601.584ZM612.109 586.022C612.109 586.161 612.096 586.345 612.071 586.573H603.901C604.015 587.46 604.401 588.175 605.06 588.72C605.731 589.252 606.561 589.518 607.549 589.518C608.752 589.518 609.721 589.113 610.456 588.302L611.463 589.48C611.007 590.012 610.437 590.417 609.753 590.696C609.081 590.975 608.328 591.114 607.492 591.114C606.428 591.114 605.484 590.899 604.661 590.468C603.837 590.025 603.198 589.41 602.742 588.625C602.298 587.84 602.077 586.953 602.077 585.965C602.077 584.99 602.292 584.109 602.723 583.324C603.166 582.539 603.768 581.931 604.528 581.5C605.3 581.057 606.168 580.835 607.131 580.835C608.093 580.835 608.948 581.057 609.696 581.5C610.456 581.931 611.045 582.539 611.463 583.324C611.893 584.109 612.109 585.009 612.109 586.022ZM607.131 582.374C606.257 582.374 605.522 582.64 604.927 583.172C604.344 583.704 604.002 584.401 603.901 585.262H610.361C610.259 584.413 609.911 583.723 609.316 583.191C608.733 582.646 608.005 582.374 607.131 582.374ZM616.39 582.621C616.706 582.038 617.175 581.595 617.796 581.291C618.416 580.987 619.17 580.835 620.057 580.835V582.602C619.955 582.589 619.816 582.583 619.639 582.583C618.651 582.583 617.872 582.881 617.302 583.476C616.744 584.059 616.466 584.895 616.466 585.984V591H614.642V580.93H616.39V582.621ZM631.624 580.93L626.741 592.007C626.31 593.033 625.804 593.755 625.221 594.173C624.651 594.591 623.961 594.8 623.15 594.8C622.656 594.8 622.175 594.718 621.706 594.553C621.25 594.401 620.87 594.173 620.566 593.869L621.345 592.501C621.864 592.995 622.466 593.242 623.15 593.242C623.593 593.242 623.961 593.122 624.252 592.881C624.556 592.653 624.828 592.254 625.069 591.684L625.392 590.981L620.946 580.93H622.846L626.361 588.986L629.838 580.93H631.624ZM639.266 590.411C639 590.639 638.671 590.816 638.278 590.943C637.886 591.057 637.48 591.114 637.062 591.114C636.049 591.114 635.264 590.842 634.706 590.297C634.149 589.752 633.87 588.973 633.87 587.96V582.431H632.16V580.93H633.87V578.726H635.694V580.93H638.582V582.431H635.694V587.884C635.694 588.429 635.827 588.847 636.093 589.138C636.372 589.429 636.765 589.575 637.271 589.575C637.829 589.575 638.304 589.417 638.696 589.1L639.266 590.411ZM646.849 580.835C648.128 580.835 649.141 581.209 649.889 581.956C650.649 582.691 651.029 583.774 651.029 585.205V591H649.205V585.414C649.205 584.439 648.97 583.704 648.502 583.21C648.033 582.716 647.362 582.469 646.488 582.469C645.5 582.469 644.721 582.76 644.151 583.343C643.581 583.913 643.296 584.736 643.296 585.813V591H641.472V576.902H643.296V582.355C643.676 581.874 644.17 581.5 644.778 581.234C645.398 580.968 646.089 580.835 646.849 580.835ZM654.404 580.93H656.228V591H654.404V580.93ZM655.316 578.992C654.962 578.992 654.664 578.878 654.423 578.65C654.195 578.422 654.081 578.143 654.081 577.814C654.081 577.485 654.195 577.206 654.423 576.978C654.664 576.737 654.962 576.617 655.316 576.617C655.671 576.617 655.962 576.731 656.19 576.959C656.431 577.174 656.551 577.447 656.551 577.776C656.551 578.118 656.431 578.409 656.19 578.65C655.962 578.878 655.671 578.992 655.316 578.992ZM665.088 580.835C666.367 580.835 667.381 581.209 668.128 581.956C668.888 582.691 669.268 583.774 669.268 585.205V591H667.444V585.414C667.444 584.439 667.21 583.704 666.741 583.21C666.272 582.716 665.601 582.469 664.727 582.469C663.739 582.469 662.96 582.76 662.39 583.343C661.82 583.913 661.535 584.736 661.535 585.813V591H659.711V580.93H661.459V582.45C661.826 581.931 662.32 581.532 662.941 581.253C663.574 580.974 664.29 580.835 665.088 580.835ZM682.332 580.93V589.632C682.332 591.393 681.895 592.691 681.021 593.527C680.147 594.376 678.843 594.8 677.107 594.8C676.157 594.8 675.252 594.667 674.39 594.401C673.529 594.148 672.832 593.78 672.3 593.299L673.174 591.893C673.643 592.298 674.219 592.615 674.903 592.843C675.6 593.084 676.316 593.204 677.05 593.204C678.228 593.204 679.096 592.925 679.653 592.368C680.223 591.811 680.508 590.962 680.508 589.822V589.024C680.078 589.543 679.546 589.936 678.912 590.202C678.292 590.455 677.614 590.582 676.879 590.582C675.917 590.582 675.043 590.379 674.257 589.974C673.485 589.556 672.877 588.98 672.433 588.245C671.99 587.498 671.768 586.649 671.768 585.699C671.768 584.749 671.99 583.907 672.433 583.172C672.877 582.425 673.485 581.848 674.257 581.443C675.043 581.038 675.917 580.835 676.879 580.835C677.639 580.835 678.342 580.974 678.988 581.253C679.647 581.532 680.185 581.943 680.603 582.488V580.93H682.332ZM677.088 588.986C677.747 588.986 678.336 588.847 678.855 588.568C679.387 588.289 679.799 587.903 680.09 587.409C680.394 586.902 680.546 586.332 680.546 585.699C680.546 584.724 680.223 583.938 679.577 583.343C678.931 582.735 678.102 582.431 677.088 582.431C676.062 582.431 675.226 582.735 674.58 583.343C673.934 583.938 673.611 584.724 673.611 585.699C673.611 586.332 673.757 586.902 674.048 587.409C674.352 587.903 674.764 588.289 675.283 588.568C675.815 588.847 676.417 588.986 677.088 588.986ZM685.57 577.7H687.717L687.356 586.801H685.912L685.57 577.7ZM686.653 591.114C686.299 591.114 686.001 591 685.76 590.772C685.52 590.531 685.399 590.24 685.399 589.898C685.399 589.556 685.52 589.271 685.76 589.043C686.001 588.802 686.299 588.682 686.653 588.682C687.008 588.682 687.299 588.802 687.527 589.043C687.755 589.271 687.869 589.556 687.869 589.898C687.869 590.24 687.749 590.531 687.508 590.772C687.28 591 686.995 591.114 686.653 591.114Z" fill="white"/>
</svg>
